<?xml version="1.0" encoding="UTF-8" standalone="no"?>
<!-- Generator: Adobe Illustrator 18.0.0, SVG Export Plug-In . SVG Version: 6.00 Build 0)  -->

<svg
   xmlns:dc="http://purl.org/dc/elements/1.1/"
   xmlns:cc="http://creativecommons.org/ns#"
   xmlns:rdf="http://www.w3.org/1999/02/22-rdf-syntax-ns#"
   xmlns:svg="http://www.w3.org/2000/svg"
   xmlns="http://www.w3.org/2000/svg"
   xmlns:sodipodi="http://sodipodi.sourceforge.net/DTD/sodipodi-0.dtd"
   xmlns:inkscape="http://www.inkscape.org/namespaces/inkscape"
   version="1.1"
   id="Layer_1"
   x="0px"
   y="0px"
   viewBox="0 0 357.81592 665"
   enable-background="new 0 0 357.9 665"
   xml:space="preserve"
   inkscape:version="0.91 r13725"
   sodipodi:docname="county2-01.svg"
   width="357.81592"
   height="665"><metadata
     id="metadata145"><rdf:RDF><cc:Work
         rdf:about=""><dc:format>image/svg+xml</dc:format><dc:type
           rdf:resource="http://purl.org/dc/dcmitype/StillImage" /><dc:title></dc:title></cc:Work></rdf:RDF></metadata><defs
     id="defs143"><linearGradient
       y2="355.70691"
       x2="99.727798"
       y1="488.4407"
       x1="239.09821"
       gradientUnits="userSpaceOnUse"
       id="SVGID_1_"><stop
         id="stop7"
         style="stop-color:#FFE7A3"
         offset="0" /><stop
         id="stop9"
         style="stop-color:#FFCA05"
         offset="0.5" /><stop
         id="stop11"
         style="stop-color:#FAAC18"
         offset="1" /></linearGradient><linearGradient
       y2="195.56329"
       x2="141.7276"
       y1="324.89459"
       x1="237.2338"
       gradientUnits="userSpaceOnUse"
       id="SVGID_2_"><stop
         id="stop19"
         style="stop-color:#D471AD"
         offset="0" /><stop
         id="stop21"
         style="stop-color:#C7158C"
         offset="0.5" /><stop
         id="stop23"
         style="stop-color:#9D248E"
         offset="1" /></linearGradient><linearGradient
       y2="525.3064"
       x2="30.615601"
       y1="656.71759"
       x1="154.7262"
       gradientUnits="userSpaceOnUse"
       id="SVGID_3_"><stop
         id="stop31"
         style="stop-color:#2BC4F3"
         offset="0" /><stop
         id="stop33"
         style="stop-color:#00AEEE"
         offset="0.5" /><stop
         id="stop35"
         style="stop-color:#0095DA"
         offset="1" /></linearGradient><radialGradient
       gradientUnits="userSpaceOnUse"
       r="119.621"
       cy="159.8801"
       cx="319.16299"
       id="SVGID_4_"><stop
         id="stop43"
         style="stop-color:#FFFFFF"
         offset="0" /><stop
         id="stop45"
         style="stop-color:#FCFDFB"
         offset="6.382171e-03" /><stop
         id="stop47"
         style="stop-color:#DFECD2"
         offset="0.1394" /><stop
         id="stop49"
         style="stop-color:#C9DFB2"
         offset="0.2759" /><stop
         id="stop51"
         style="stop-color:#B6D599"
         offset="0.4135" /><stop
         id="stop53"
         style="stop-color:#A8CE87"
         offset="0.5528" /><stop
         id="stop55"
         style="stop-color:#9EC97A"
         offset="0.6944" /><stop
         id="stop57"
         style="stop-color:#98C772"
         offset="0.8397" /><stop
         id="stop59"
         style="stop-color:#96C66F"
         offset="0.9944" /></radialGradient><linearGradient
       y2="533.75513"
       x2="216.0775"
       y1="594.81097"
       x1="320.27069"
       gradientUnits="userSpaceOnUse"
       id="SVGID_5_"><stop
         id="stop67"
         style="stop-color:#D1E4A5"
         offset="0" /><stop
         id="stop69"
         style="stop-color:#ACD479"
         offset="0.5" /><stop
         id="stop71"
         style="stop-color:#76B83F"
         offset="1" /></linearGradient><linearGradient
       y2="210.6349"
       x2="270.742"
       y1="322.04141"
       x1="307.8775"
       gradientUnits="userSpaceOnUse"
       id="SVGID_6_"><stop
         id="stop79"
         style="stop-color:#00A38A"
         offset="1.123600e-02" /><stop
         id="stop81"
         style="stop-color:#009675"
         offset="0.5" /><stop
         id="stop83"
         style="stop-color:#006A5A"
         offset="1" /></linearGradient><radialGradient
       gradientUnits="userSpaceOnUse"
       r="156.3391"
       cy="526.36969"
       cx="336.827"
       id="SVGID_7_"><stop
         id="stop91"
         style="stop-color:#FFFFFF"
         offset="0" /><stop
         id="stop93"
         style="stop-color:#D4DEEF"
         offset="8.400899e-02" /><stop
         id="stop95"
         style="stop-color:#A0B9DD"
         offset="0.2167" /><stop
         id="stop97"
         style="stop-color:#779ECF"
         offset="0.3511" /><stop
         id="stop99"
         style="stop-color:#538BC4"
         offset="0.4845" /><stop
         id="stop101"
         style="stop-color:#2F7FBD"
         offset="0.6167" /><stop
         id="stop103"
         style="stop-color:#0076B8"
         offset="0.7474" /><stop
         id="stop105"
         style="stop-color:#0072B5"
         offset="0.876" /><stop
         id="stop107"
         style="stop-color:#0071B5"
         offset="1" /></radialGradient><linearGradient
       y2="601.60309"
       x2="219.4169"
       y1="667.23541"
       x1="330.793"
       gradientUnits="userSpaceOnUse"
       id="SVGID_8_"><stop
         id="stop115"
         style="stop-color:#F37F7B"
         offset="0" /><stop
         id="stop117"
         style="stop-color:#ED3D57"
         offset="0.5" /><stop
         id="stop119"
         style="stop-color:#DD1E47"
         offset="1" /></linearGradient></defs><sodipodi:namedview
     pagecolor="#ffffff"
     bordercolor="#666666"
     borderopacity="1"
     objecttolerance="10"
     gridtolerance="10"
     guidetolerance="10"
     inkscape:pageopacity="0"
     inkscape:pageshadow="2"
     inkscape:window-width="1081"
     inkscape:window-height="771"
     id="namedview141"
     showgrid="false"
     fit-margin-top="0"
     fit-margin-left="0"
     fit-margin-right="0"
     fit-margin-bottom="0"
     inkscape:zoom="0.86"
     inkscape:cx="178.95"
     inkscape:cy="317.57261"
     inkscape:window-x="29"
     inkscape:window-y="18"
     inkscape:window-maximized="0"
     inkscape:current-layer="Layer_1" /><rect
     x="-115.04651"
     y="-77.057404"
     width="612"
     height="806.40002"
     id="rect3"
     style="opacity:0.07000002;fill:#00aeef" /><polygon
     style="fill:url(#SVGID_1_)"
     id="waukeesharec"
     points="242.9,495.4 82.2,497.5 79.5,333 240.8,331.5 " /><path
     style="fill:#ffffff"
     inkscape:connector-curvature="0"
     id="waukeesha"
     d="m 240.4,331.9 2.1,163.1 -79.4,1.1 0,-0.1 -1.5,0 0,0.1 -79.1,1 -2.6,-163.8 39.4,-0.4 0,0 121.1,-1 m 0.7,-0.8 -121.9,1.1 0,0.4 0,-0.4 -40.1,0.4 2.7,165.2 80.6,-1.1 0,-0.9 0,0.9 80.9,-1.1 -2.2,-164.5 0,0 z" /><polygon
     style="fill:url(#SVGID_2_)"
     id="washingtonrec"
     points="204.8,169.3 244.6,168.6 247.5,249.2 239.7,249.7 240.8,330.8 119.6,331.9 118.4,252.5 124.9,252.5 123.8,170.7 204,169.3 204,170.5 204.8,170.5 " /><path
     style="fill:#ffffff"
     inkscape:connector-curvature="0"
     id="washington"
     d="m 244.2,168.9 3,80 -7.1,0.4 -0.7,0 0,0.7 1,80.3 -120.4,1.2 -1.2,-78.7 5.7,0 0.7,0 0,-0.7 -1.1,-81.1 79.5,-1.4 0,0.8 1.5,0 0,-0.8 39.1,-0.7 m 0.7,-0.7 -40.5,0.7 0,1.6 0,-1.6 -81,1.5 1.1,81.8 -6.5,0 1.2,80.1 121.9,-1.1 -1,-81.1 7.8,-0.5 -3,-81.4 0,0 z" /><polygon
     style="fill:url(#SVGID_3_)"
     id="Walworthrec"
     points="165.6,664.3 4.3,664.7 0.4,499.3 162,497.2 164.3,607.3 164.2,607.3 164.2,608 164.4,608 " /><path
     style="fill:#ffffff"
     inkscape:connector-curvature="0"
     id="Walworth"
     d="m 161.6,497.6 2.3,110.1 0,0 1.2,56.3 -160.5,0.3 -3.8,-164.6 160.8,-2.1 m 0.8,-0.8 L 0,499 l 3.9,166 162,-0.4 -1.2,-57 -0.5,0 0.5,0 -2.3,-110.8 0,0 z" /><path
     inkscape:connector-curvature="0"
     style="fill:url(#SVGID_4_)"
     id="SheboyganRec"
     d="M 200.7,4.6 347.6,0.4 c -0.5,0.6 -0.9,1 -1.2,1.5 -2,2.3 -2.9,3.4 -1.9,6.1 0.3,0.9 0.8,1.9 1.2,2.9 0.9,2.2 2,4.7 1.9,5.7 -0.1,1.3 -0.5,4.3 -0.5,8.9 0,1 -0.1,2 -0.1,3.1 -0.2,3.4 -0.5,7.3 2,12.5 3.2,6.6 3.9,9.7 4.6,12.6 l 0,0.2 c 0.3,1.3 0.9,2.9 1.6,4.6 0.9,2.3 1.9,4.7 1.7,6.1 -0.1,0.7 -0.1,1.7 0,2.9 0,2.7 0.1,6.3 -1.1,8.2 -1.2,1.9 -0.4,4.2 0.5,6.6 0.5,1.4 1,2.8 1.2,4.2 0.3,2.3 -0.2,4.4 -0.8,6.8 -0.4,1.6 -0.8,3.3 -1,5.3 -0.1,0.7 -0.1,1.3 -0.2,1.9 -0.4,3.9 -0.6,6.7 -3.6,11.4 -1.5,2.4 -2.6,5.6 -3.6,8.8 -1.4,4.2 -2.8,8.5 -5.2,10.4 -2.6,2.1 -3.1,4.3 -3.7,6.6 -0.4,1.7 -0.8,3.4 -2,5.2 -1.1,1.7 -2.1,2.9 -3,4.1 -1.5,2 -3,3.9 -4.7,7.4 -0.4,0.9 -0.8,1.7 -1.2,2.5 -1.6,3.4 -3,6.4 -3.6,9.5 L 204,168.6 200.7,4.6 Z" /><path
     style="fill:#ffffff"
     inkscape:connector-curvature="0"
     id="Sheboygan"
     d="m 346.8,0.8 c -0.3,0.3 -0.5,0.6 -0.7,0.9 -2,2.3 -3.1,3.6 -2,6.5 0.3,0.9 0.8,1.9 1.2,2.9 0.9,2.1 1.9,4.6 1.9,5.5 -0.1,1.3 -0.5,4.3 -0.5,8.9 0,1 -0.1,2 -0.1,3.1 -0.2,3.5 -0.5,7.4 2,12.7 3.2,6.6 3.9,9.6 4.6,12.5 l 0,0.1 c 0.3,1.3 0.9,2.9 1.6,4.7 0.9,2.2 1.8,4.6 1.7,5.9 -0.1,0.7 -0.1,1.7 0,2.9 0,2.6 0.1,6.2 -1,8 -1.3,2.1 -0.4,4.4 0.5,6.9 0.5,1.4 1,2.8 1.2,4.2 0.3,2.3 -0.2,4.3 -0.8,6.6 -0.4,1.6 -0.8,3.3 -1,5.3 -0.1,0.7 -0.1,1.3 -0.2,1.9 -0.3,3.8 -0.6,6.6 -3.5,11.2 -1.6,2.4 -2.6,5.7 -3.7,8.8 -1.4,4.1 -2.8,8.4 -5.1,10.2 -2.7,2.2 -3.3,4.4 -3.8,6.8 -0.4,1.6 -0.8,3.3 -2,5.1 -1.1,1.7 -2.1,2.9 -3,4.1 -1.6,2 -3,3.9 -4.7,7.5 -0.4,0.9 -0.8,1.7 -1.2,2.5 -1.6,3.3 -2.9,6.3 -3.5,9.3 l -80.4,1.4 0,0.2 0,0 0,-0.2 -39.8,0.7 -3.4,-163 145.7,-4.1 m 1.5,-0.8 -148,4.2 3.2,164.7 40.5,-0.7 0,-0.6 0,0.6 81,-1.5 c 0.7,-3.9 2.6,-7.6 4.8,-12.3 2.6,-5.6 4.7,-6.9 7.6,-11.5 2.9,-4.6 1.4,-8.3 5.7,-11.8 4.3,-3.5 5.4,-13.7 9,-19.3 3.5,-5.6 3.3,-8.6 3.8,-13.4 0.5,-4.9 2.4,-8.1 1.8,-12.2 -0.5,-4 -3.6,-7.8 -1.8,-10.6 1.7,-2.8 0.9,-8.8 1.2,-11.2 0.3,-2.5 -2.7,-7.7 -3.3,-10.8 -0.7,-3 -1.4,-6 -4.7,-12.8 -3.2,-6.8 -1.8,-11 -1.8,-15.5 0,-4.5 0.3,-7.4 0.5,-8.8 0.1,-1.5 -1.9,-5.6 -3.1,-8.8 -1.1,-3.1 0.4,-3.9 3.3,-7.5 0.2,0.1 0.2,-0.1 0.3,-0.2 l 0,0 z" /><path
     inkscape:connector-curvature="0"
     style="fill:url(#SVGID_5_)"
     id="Racinerec"
     d="M 162.7,497.2 326.3,495 c 0.2,1.1 0.8,2.2 1.4,3.5 0.7,1.5 1.5,3.1 2,5.1 0.6,2.8 1.9,4.2 3.4,5.9 1,1.1 2,2.1 3,3.8 0.7,1.2 1.6,2.6 2.5,4 2.2,3.4 4.5,6.9 4.9,9 0.3,1.3 1.1,2.4 1.8,3.4 1,1.4 1.8,2.6 1.4,4.1 -0.3,1.1 -1.1,1.8 -2.1,2.5 -1.3,1 -2.8,2.2 -3.1,4.9 -0.2,2.3 0.2,4.1 0.6,5.9 0.4,1.8 0.8,3.5 0.6,5.6 -0.2,2.2 -0.2,4.4 -0.2,6.4 0,2.1 0.1,4.2 -0.2,6.4 -0.1,1.1 -0.1,2 -0.1,2.8 0.1,2.2 0.1,3.2 -3.7,6 -0.6,0.4 -1.1,0.9 -1.6,1.4 l -134.7,4.5 1.8,26.1 -39,0.9 -2.3,-110 z" /><path
     style="fill:#ffffff"
     inkscape:connector-curvature="0"
     id="Racine"
     d="m 326.1,495.4 c 0.3,1.1 0.8,2.2 1.3,3.3 0.7,1.5 1.5,3.1 1.9,5 0.6,2.9 2,4.5 3.5,6 1,1 2,2.1 2.9,3.7 0.7,1.2 1.6,2.6 2.5,4 2.1,3.2 4.4,6.9 4.9,8.9 0.3,1.4 1.1,2.6 1.8,3.6 1.1,1.5 1.7,2.5 1.3,3.8 -0.3,1 -1.1,1.6 -2,2.3 -1.3,1 -3,2.3 -3.3,5.1 -0.2,2.3 0.2,4.2 0.6,6 0.4,1.8 0.8,3.4 0.6,5.5 -0.2,2.2 -0.2,4.4 -0.2,6.5 0,2 0.1,4.2 -0.2,6.3 -0.1,1.2 -0.1,2.1 -0.1,2.8 0.1,2.1 0.1,3 -3.6,5.6 -0.5,0.4 -1.1,0.8 -1.5,1.3 l -134.1,4.5 -0.8,0 0.1,0.8 1.7,25.3 -38.3,0.9 -2.3,-109.3 79.4,-1.1 0,0.2 1.5,0 0,-0.2 82.4,-0.8 m 0.6,-0.8 -83.4,1.1 0,1 0,-1 -80.9,1.1 2.4,110.8 39.8,-0.9 -1.8,-26.1 134.4,-4.5 c 0.5,-0.5 1.1,-1 1.7,-1.4 5.3,-3.9 3.5,-4.6 3.9,-9 0.5,-4.4 -0.1,-8.4 0.3,-12.8 0.5,-4.4 -1.7,-7.1 -1.2,-11.5 0.5,-4.4 4.4,-4.5 5.2,-7.3 0.8,-2.9 -2.5,-4.7 -3.2,-7.7 -0.7,-3 -5,-8.9 -7.5,-13.1 -2.5,-4.2 -5.4,-5 -6.4,-9.5 -0.9,-4.1 -2.9,-6.7 -3.3,-9.2 l 0,0 z" /><path
     inkscape:connector-curvature="0"
     style="fill:url(#SVGID_6_)"
     id="OzaukeeRec"
     d="m 240.5,250.4 7.8,-0.5 -3,-81.4 80.2,-1.4 c -0.1,0.6 -0.2,1.4 -0.2,2.2 0,2.6 1.1,4.2 2.1,5.7 1,1.5 1.9,2.9 1.7,5 -0.5,4.4 -1.1,10.2 -1.7,16.1 -0.3,2.8 0.2,5.5 0.6,7.9 0.4,2.5 0.8,4.7 0,5.8 -0.7,1 -0.7,1.6 -0.7,2.4 0,1.2 0,2.9 -2.8,7.1 -4.9,7.3 -11.8,16.3 -15.4,20.1 -4,4.3 -7.1,11 -7.7,16.7 -0.5,4.8 -2,19.3 -3.2,25.8 -0.6,3.4 -0.9,5.1 -1.2,7 -0.3,1.7 -0.6,3.6 -1.2,7 -0.6,3.4 -1.7,6 -2.7,8.5 -1.2,2.9 -2.3,5.5 -2.6,9.2 -0.5,4.6 2.4,7.8 4.7,10.4 1.3,1.4 2.4,2.7 2.7,3.9 0.3,0.9 0.3,1.6 0.2,2.3 l -56.4,0.5 -1.2,-80.3 z" /><path
     style="fill:#ffffff"
     inkscape:connector-curvature="0"
     id="Ozaukee"
     d="m 325.1,167.5 c -0.1,0.5 -0.1,1.2 -0.1,1.8 0,2.7 1.2,4.4 2.2,5.9 1,1.5 1.8,2.8 1.6,4.7 -0.5,4.4 -1.1,10.2 -1.7,16.1 -0.3,2.8 0.2,5.6 0.6,8 0.4,2.4 0.8,4.5 0.1,5.5 -0.8,1.1 -0.8,1.8 -0.8,2.7 0,1.2 0,2.8 -2.8,6.9 -4.9,7.3 -11.8,16.3 -15.4,20 -4.1,4.4 -7.2,11.1 -7.8,16.9 -0.5,4.8 -2,19.3 -3.2,25.8 -0.6,3.4 -0.9,5.1 -1.2,7 -0.3,1.7 -0.6,3.6 -1.2,7 -0.6,3.4 -1.6,6 -2.7,8.5 -1.2,2.9 -2.3,5.6 -2.7,9.3 -0.5,4.7 2.4,8 4.8,10.7 1.3,1.4 2.3,2.6 2.7,3.8 0.2,0.7 0.2,1.2 0.2,1.8 l -55.8,0.5 -1,-79.6 7.1,-0.4 0.7,0 0,-0.7 -3,-80.7 79.4,-1.5 m 0.8,-0.8 -81,1.5 3,81.4 -7.8,0.5 1,81.1 57.1,-0.5 c 0.2,-0.8 0.2,-1.7 -0.1,-2.8 -1.1,-3.6 -8.1,-7.3 -7.4,-14.1 0.7,-6.8 4.1,-10.4 5.3,-17.7 1.3,-7.3 1.3,-7.8 2.4,-14.1 1.2,-6.3 2.6,-20 3.2,-25.8 0.6,-5.8 3.8,-12.4 7.6,-16.5 3.9,-4 10.9,-13.2 15.5,-20.1 4.7,-6.9 1.8,-7.2 3.5,-9.5 1.7,-2.3 -1.2,-8 -0.5,-13.9 0.6,-5.9 1.2,-11.7 1.7,-16.1 0.5,-4.4 -3.8,-5.8 -3.8,-10.8 0.1,-0.9 0.2,-1.7 0.3,-2.6 l 0,0 z" /><path
     inkscape:connector-curvature="0"
     style="fill:url(#SVGID_7_)"
     id="Milwaukee Rec"
     d="m 241.5,331.5 56.3,-0.5 c 0,0.2 -0.1,0.3 -0.1,0.5 -0.4,1.6 -0.9,3.5 0.5,6.9 0.5,1.3 1.1,2.4 1.6,3.4 1.8,3.6 2.9,6 1.4,9.9 -0.9,2.4 -2.2,4.1 -3.4,5.7 -1.4,1.9 -2.6,3.5 -2.8,5.7 -0.3,2.4 1.5,5.1 3.3,7.9 1.3,1.9 2.6,3.9 3.2,5.8 0.9,2.7 4.1,6.2 6.7,9.1 1.5,1.6 3.3,3.7 3.3,4.1 0,0.3 0,0.5 -0.1,0.9 -0.1,1.6 -0.2,3.9 -1.9,8.2 -1,2.5 -3.1,3.9 -5,5.1 -1.9,1.2 -3.7,2.3 -3.9,4.4 -0.4,4.1 -0.4,8.1 0.2,12.4 0.3,3.4 2.2,5.3 5.3,8.5 1.2,1.3 2.6,2.7 4.2,4.5 l 1.6,1.8 c 5,5.7 9.8,11.1 9.4,14.9 l -1.3,12.2 c -0.6,6.1 0.7,18.3 1.5,23.5 0.5,3.3 2.2,4.2 3.3,4.9 0.9,0.5 1.4,0.8 1.3,1.9 0,0.3 0,0.6 0,1 l -82.6,1.1 -2,-163.8 z" /><path
     style="fill:#ffffff"
     inkscape:connector-curvature="0"
     id="Milwaukee"
     d="m 297.3,331.4 c 0,0 0,0 0,0 -0.4,1.7 -0.9,3.7 0.5,7.2 0.5,1.3 1.1,2.4 1.6,3.5 1.7,3.5 2.8,5.9 1.4,9.6 -0.9,2.3 -2.2,4.1 -3.3,5.6 -1.4,1.8 -2.6,3.5 -2.9,5.8 -0.3,2.5 1.5,5.3 3.4,8.1 1.2,1.9 2.5,3.9 3.1,5.7 0.9,2.8 4.1,6.3 6.7,9.2 1.4,1.5 3,3.4 3.2,3.9 0,0.3 0,0.5 -0.1,0.8 -0.1,1.5 -0.2,3.9 -1.8,8.1 -0.9,2.4 -2.9,3.7 -4.9,4.9 -2,1.2 -3.8,2.4 -4.1,4.7 -0.4,4.2 -0.4,8.2 0.2,12.5 0.4,3.5 2.3,5.5 5.4,8.8 1.2,1.3 2.6,2.7 4.2,4.5 0.5,0.6 1.1,1.2 1.6,1.8 5,5.6 9.7,10.9 9.3,14.6 l -0.2,2.1 -1.1,10.1 c -0.6,6.1 0.7,18.4 1.5,23.6 0.6,3.4 2.3,4.5 3.5,5.2 0.9,0.6 1.2,0.7 1.1,1.5 0,0.2 0,0.4 0,0.7 l -81.6,1.1 -2.1,-163.1 55.4,-0.5 m 1,-0.8 -57.1,0.5 2.1,164.6 83.4,-1.1 c -0.1,-0.4 -0.1,-0.9 -0.1,-1.3 0.3,-2.9 -3.7,-1.4 -4.7,-6.9 -0.9,-5.5 -2.1,-17.5 -1.5,-23.4 0.6,-5.8 0.8,-7.8 1.3,-12.2 0.5,-4.4 -5.3,-10.5 -11,-17 -5.7,-6.5 -9,-8.4 -9.5,-12.9 -0.6,-4.5 -0.6,-8.4 -0.2,-12.4 0.4,-3.9 6.8,-4.2 8.9,-9.4 2,-5.2 1.8,-7.7 2,-9.2 0.2,-1.5 -8.5,-8.8 -10,-13.4 -1.5,-4.6 -6.9,-9.6 -6.5,-13.5 0.4,-3.9 4.1,-6 6.1,-11.2 2,-5.2 -0.6,-8 -3,-13.6 -1.6,-3.9 -0.6,-5.7 -0.2,-7.6 l 0,0 z" /><path
     inkscape:connector-curvature="0"
     style="fill:url(#SVGID_8_)"
     id="KenoshaRec"
     d="m 165.1,608 39.8,-0.9 -1.8,-26.1 133.1,-4.5 c -4.1,4.4 -5,10 -5.1,11.7 -0.2,1.7 0.5,2.9 1.2,4 0.8,1.2 1.6,2.5 1.3,4.7 -0.2,2.1 -1.2,3.4 -2.2,4.8 -1,1.4 -2.1,2.8 -2.3,5.1 -0.2,2.3 0.4,3.6 1.2,5.2 0.8,1.5 1.8,3.5 2.4,7.1 0.3,2.1 0.6,3.3 0.7,4.1 0.3,1.8 0.3,1.8 0.3,4 0,0.6 0,1.3 -0.1,2.3 -0.1,2.1 -0.3,3.3 -0.6,4.3 -0.5,2 -0.9,3.4 1.1,10.2 0.8,3 1.7,5.6 2.4,7.9 1.6,5 2.8,8.7 2.7,12.1 l -173,0.4 -1.1,-56.4 z" /><path
     style="fill:#ffffff"
     inkscape:connector-curvature="0"
     id="Kenosha"
     d="m 335.4,576.8 c -3.7,4.4 -4.5,9.6 -4.7,11.2 -0.2,1.9 0.6,3.1 1.3,4.2 0.8,1.2 1.5,2.4 1.3,4.5 -0.2,2 -1.1,3.3 -2.1,4.6 -1.1,1.4 -2.2,2.9 -2.4,5.3 -0.3,2.4 0.5,3.8 1.3,5.4 0.8,1.5 1.8,3.4 2.4,7 0.3,2.1 0.6,3.3 0.7,4.1 0.3,1.7 0.3,1.7 0.2,3.9 0,0.6 0,1.3 -0.1,2.3 -0.1,2.1 -0.3,3.2 -0.6,4.2 -0.5,2 -0.9,3.5 1.1,10.4 0.8,3 1.7,5.6 2.4,7.9 1.5,4.8 2.7,8.4 2.7,11.6 l -172.3,0.4 -1.2,-55.6 39,-0.9 0.8,0 -0.1,-0.8 -1.7,-25.4 132,-4.3 m 1.7,-0.8 -134.4,4.5 1.8,26.1 -39.8,0.9 1.2,57 173.7,-0.4 c 0.2,-5.1 -2.4,-10.8 -5.2,-20.5 -2.9,-10.2 -0.6,-8 -0.5,-14.4 0.2,-6.4 0.3,-2.9 -0.9,-10.5 -1.2,-7.5 -4.1,-7.8 -3.6,-12.2 0.5,-4.4 4.1,-5.5 4.5,-9.9 0.5,-4.4 -2.9,-5.3 -2.6,-8.7 0.5,-2.8 1.8,-8 5.8,-11.9 l 0,0 z" /><text
     font-size="24.1606"
     id="text125"
     style="font-size:24.16060066px;font-family:Futura-Medium;fill:#ffffff"
     x="188.55231"
     y="639.62183">Kenosha</text>
<text
     font-size="24.1606"
     id="text127"
     style="font-size:24.16060066px;font-family:Futura-Medium;fill:#ffffff"
     x="25.011499"
     y="585.99072">Walworth</text>
<text
     font-size="24.1606"
     id="text129"
     style="font-size:24.16060066px;font-family:Futura-Medium;fill:#ffffff"
     x="103.096"
     y="420.521">Waukesha</text>
<text
     transform="matrix(0.38971502,0.9209355,-0.9209355,0.38971502,0,0)"
     font-size="24.1606"
     id="text131"
     style="font-size:24.15966988px;font-family:Futura-Medium;fill:#ffffff"
     x="229.44096"
     y="-55.283035">Washington</text>
<text
     transform="matrix(0.30200228,0.9533072,-0.9533072,0.30200228,0,0)"
     font-size="24.1605"
     id="text133"
     style="font-size:24.16049957px;font-family:Futura-Medium;fill:#ffffff"
     x="248.20586"
     y="-184.24141">Ozaukee</text>
<text
     transform="matrix(0.28500752,0.95852528,-0.95852528,0.28500752,0,0)"
     font-size="24.1605"
     id="text135"
     style="font-size:24.15986252px;font-family:ArialMT;fill:#ffffff"
     x="416.01996"
     y="-136.73201">Milwaukee</text>
<text
     font-size="24.1606"
     id="text137"
     style="font-size:24.16060066px;font-family:Futura-Medium;fill:#ffffff"
     x="199.30521"
     y="557.38647">Racine</text>
<text
     font-size="24.1606"
     id="text139"
     style="font-size:24.16060066px;font-family:Futura-Medium;fill:#ffffff"
     x="221.38361"
     y="90.859497">Sheboygan</text>
<flowRoot
     xml:space="preserve"
     id="flowRoot3539"
     style="font-style:normal;font-weight:normal;font-size:40px;line-height:125%;font-family:sans-serif;letter-spacing:0px;word-spacing:0px;fill:#000000;fill-opacity:1;stroke:none;stroke-width:1px;stroke-linecap:butt;stroke-linejoin:miter;stroke-opacity:1"><flowRegion
       id="flowRegion3541"><rect
         id="rect3543"
         width="625.26361"
         height="663.8313"
         x="-115.70299"
         y="11.68717" /></flowRegion><flowPara
       id="flowPara3545"></flowPara></flowRoot></svg>