<?xml version="1.0" encoding="UTF-8" standalone="no"?>
<svg
   xmlns:dc="http://purl.org/dc/elements/1.1/"
   xmlns:cc="http://creativecommons.org/ns#"
   xmlns:rdf="http://www.w3.org/1999/02/22-rdf-syntax-ns#"
   xmlns:svg="http://www.w3.org/2000/svg"
   xmlns="http://www.w3.org/2000/svg"
   height="684.30695"
   width="373.6279"
   xml:space="preserve"
   enable-background="new 0 0 357.9 665"
   viewBox="0 0 373.6279 684.30695"
   y="0px"
   x="0px"
   id="Layer_1"
   version="1.1"><metadata
     id="metadata145"><rdf:RDF><cc:Work
         rdf:about=""><dc:format>image/svg+xml</dc:format><dc:type
           rdf:resource="http://purl.org/dc/dcmitype/StillImage" /><dc:title></dc:title></cc:Work></rdf:RDF></metadata><defs
     id="defs143"><linearGradient
       id="SVGID_1_"
       gradientUnits="userSpaceOnUse"
       x1="239.09821"
       y1="488.4407"
       x2="99.727798"
       y2="355.70691"><stop
         offset="0"
         style="stop-color:#FFE7A3"
         id="stop7" /><stop
         offset="0.5"
         style="stop-color:#FFCA05"
         id="stop9" /><stop
         offset="1"
         style="stop-color:#FAAC18"
         id="stop11" /></linearGradient><linearGradient
       id="SVGID_2_"
       gradientUnits="userSpaceOnUse"
       x1="237.2338"
       y1="324.89459"
       x2="141.7276"
       y2="195.56329"><stop
         offset="0"
         style="stop-color:#D471AD"
         id="stop19" /><stop
         offset="0.5"
         style="stop-color:#C7158C"
         id="stop21" /><stop
         offset="1"
         style="stop-color:#9D248E"
         id="stop23" /></linearGradient><linearGradient
       id="SVGID_3_"
       gradientUnits="userSpaceOnUse"
       x1="154.7262"
       y1="656.71759"
       x2="30.615601"
       y2="525.3064"><stop
         offset="0"
         style="stop-color:#2BC4F3"
         id="stop31" /><stop
         offset="0.5"
         style="stop-color:#00AEEE"
         id="stop33" /><stop
         offset="1"
         style="stop-color:#0095DA"
         id="stop35" /></linearGradient><radialGradient
       gradientTransform="translate(5.7441831,1.4760082)"
       id="SVGID_4_"
       cx="319.16299"
       cy="159.8801"
       r="119.621"
       gradientUnits="userSpaceOnUse"><stop
         offset="0"
         style="stop-color:#FFFFFF"
         id="stop43" /><stop
         offset="6.382171e-03"
         style="stop-color:#FCFDFB"
         id="stop45" /><stop
         offset="0.1394"
         style="stop-color:#DFECD2"
         id="stop47" /><stop
         offset="0.2759"
         style="stop-color:#C9DFB2"
         id="stop49" /><stop
         offset="0.4135"
         style="stop-color:#B6D599"
         id="stop51" /><stop
         offset="0.5528"
         style="stop-color:#A8CE87"
         id="stop53" /><stop
         offset="0.6944"
         style="stop-color:#9EC97A"
         id="stop55" /><stop
         offset="0.8397"
         style="stop-color:#98C772"
         id="stop57" /><stop
         offset="0.9944"
         style="stop-color:#96C66F"
         id="stop59" /></radialGradient><linearGradient
       gradientTransform="translate(5.7441831,1.4760082)"
       id="SVGID_5_"
       gradientUnits="userSpaceOnUse"
       x1="320.27069"
       y1="594.81097"
       x2="216.0775"
       y2="533.75513"><stop
         offset="0"
         style="stop-color:#D1E4A5"
         id="stop67" /><stop
         offset="0.5"
         style="stop-color:#ACD479"
         id="stop69" /><stop
         offset="1"
         style="stop-color:#76B83F"
         id="stop71" /></linearGradient><linearGradient
       gradientTransform="translate(5.7441831,1.4760082)"
       id="SVGID_6_"
       gradientUnits="userSpaceOnUse"
       x1="307.8775"
       y1="322.04141"
       x2="270.742"
       y2="210.6349"><stop
         offset="1.123600e-02"
         style="stop-color:#00A38A"
         id="stop79" /><stop
         offset="0.5"
         style="stop-color:#009675"
         id="stop81" /><stop
         offset="1"
         style="stop-color:#006A5A"
         id="stop83" /></linearGradient><radialGradient
       gradientTransform="translate(5.7441831,1.4760082)"
       id="SVGID_7_"
       cx="336.827"
       cy="526.36969"
       r="156.3391"
       gradientUnits="userSpaceOnUse"><stop
         offset="0"
         style="stop-color:#FFFFFF"
         id="stop91" /><stop
         offset="8.400899e-02"
         style="stop-color:#D4DEEF"
         id="stop93" /><stop
         offset="0.2167"
         style="stop-color:#A0B9DD"
         id="stop95" /><stop
         offset="0.3511"
         style="stop-color:#779ECF"
         id="stop97" /><stop
         offset="0.4845"
         style="stop-color:#538BC4"
         id="stop99" /><stop
         offset="0.6167"
         style="stop-color:#2F7FBD"
         id="stop101" /><stop
         offset="0.7474"
         style="stop-color:#0076B8"
         id="stop103" /><stop
         offset="0.876"
         style="stop-color:#0072B5"
         id="stop105" /><stop
         offset="1"
         style="stop-color:#0071B5"
         id="stop107" /></radialGradient><linearGradient
       gradientTransform="translate(5.7441831,1.4760082)"
       id="SVGID_8_"
       gradientUnits="userSpaceOnUse"
       x1="330.793"
       y1="667.23541"
       x2="219.4169"
       y2="601.60309"><stop
         offset="0"
         style="stop-color:#F37F7B"
         id="stop115" /><stop
         offset="0.5"
         style="stop-color:#ED3D57"
         id="stop117" /><stop
         offset="1"
         style="stop-color:#DD1E47"
         id="stop119" /></linearGradient></defs><rect
     style="opacity:0.07000002;fill:#00aeef"
     id="rect3"
     height="684.30695"
     width="373.6279"
     y="0"
     x="0" /><polygon
     transform="translate(5.7441831,1.4760082)"
     points="240.8,331.5 242.9,495.4 82.2,497.5 79.5,333 "
     id="waukeeshaRec"
     style="fill:url(#SVGID_1_)" /><path
     d="m 246.14418,333.37601 2.1,163.1 -79.4,1.1 0,-0.1 -1.5,0 0,0.1 -79.099997,1 -2.6,-163.8 39.399997,-0.4 0,0 121.1,-1 m 0.7,-0.8 -121.9,1.1 0,0.4 0,-0.4 -40.099997,0.4 2.7,165.2 80.599997,-1.1 0,-0.9 0,0.9 80.9,-1.1 -2.2,-164.5 0,0 z"
     id="waukeesha"
     style="fill:#ffffff" /><polygon
     transform="translate(5.7441831,1.4760082)"
     points="124.9,252.5 123.8,170.7 204,169.3 204,170.5 204.8,170.5 204.8,169.3 244.6,168.6 247.5,249.2 239.7,249.7 240.8,330.8 119.6,331.9 118.4,252.5 "
     id="washingtonRec"
     style="fill:url(#SVGID_2_)" /><path
     d="m 249.94418,170.37601 3,80 -7.1,0.4 -0.7,0 0,0.7 1,80.3 -120.4,1.2 -1.2,-78.7 5.7,0 0.7,0 0,-0.7 -1.1,-81.1 79.5,-1.4 0,0.8 1.5,0 0,-0.8 39.1,-0.7 m 0.7,-0.7 -40.5,0.7 0,1.6 0,-1.6 -81,1.5 1.1,81.8 -6.5,0 1.2,80.1 121.9,-1.1 -1,-81.1 7.8,-0.5 -3,-81.4 0,0 z"
     id="washington"
     style="fill:#ffffff" /><polygon
     transform="translate(5.7441831,1.4760082)"
     points="164.2,608 164.4,608 165.6,664.3 4.3,664.7 0.4,499.3 162,497.2 164.3,607.3 164.2,607.3 "
     id="Walworthrec"
     style="fill:url(#SVGID_3_)" /><path
     d="m 167.34418,499.07601 2.3,110.1 0,0 1.2,56.3 -160.499997,0.3 -3.7999999,-164.6 160.7999969,-2.1 m 0.8,-0.8 -162.3999969,2.2 3.9,166 161.9999969,-0.4 -1.2,-57 -0.5,0 0.5,0 -2.3,-110.8 0,0 z"
     id="Walworth"
     style="fill:#ffffff" /><path
     d="m 206.44418,6.0760082 146.9,-4.2 c -0.5,0.6 -0.9,1 -1.2,1.5 -2,2.3 -2.9,3.4 -1.9,6.1 0.3,0.8999998 0.8,1.8999998 1.2,2.8999998 0.9,2.2 2,4.7 1.9,5.7 -0.1,1.3 -0.5,4.3 -0.5,8.9 0,1 -0.1,2 -0.1,3.1 -0.2,3.4 -0.5,7.3 2,12.5 3.2,6.6 3.9,9.7 4.6,12.6 l 0,0.2 c 0.3,1.3 0.9,2.9 1.6,4.6 0.9,2.3 1.9,4.7 1.7,6.1 -0.1,0.7 -0.1,1.7 0,2.9 0,2.7 0.1,6.3 -1.1,8.2 -1.2,1.9 -0.4,4.2 0.5,6.6 0.5,1.4 1,2.8 1.2,4.2 0.3,2.3 -0.2,4.4 -0.8,6.8 -0.4,1.6 -0.8,3.3 -1,5.300002 -0.1,0.7 -0.1,1.3 -0.2,1.9 -0.4,3.9 -0.6,6.7 -3.6,11.4 -1.5,2.4 -2.6,5.6 -3.6,8.8 -1.4,4.2 -2.8,8.5 -5.2,10.4 -2.6,2.1 -3.1,4.3 -3.7,6.6 -0.4,1.7 -0.8,3.4 -2,5.2 -1.1,1.7 -2.1,2.9 -3,4.1 -1.5,2 -3,3.9 -4.7,7.4 -0.4,0.9 -0.8,1.7 -1.2,2.5 -1.6,3.4 -3,6.4 -3.6,9.5 l -120.9,2.2 -3.3,-164.0000018 z"
     id="SheboyganRec"
     style="fill:url(#SVGID_4_)" /><path
     d="m 352.54418,2.2760082 c -0.3,0.3 -0.5,0.6 -0.7,0.9 -2,2.3 -3.1,3.6 -2,6.5 0.3,0.8999998 0.8,1.8999998 1.2,2.8999998 0.9,2.1 1.9,4.6 1.9,5.5 -0.1,1.3 -0.5,4.3 -0.5,8.9 0,1 -0.1,2 -0.1,3.1 -0.2,3.5 -0.5,7.4 2,12.7 3.2,6.6 3.9,9.6 4.6,12.5 l 0,0.1 c 0.3,1.3 0.9,2.9 1.6,4.7 0.9,2.2 1.8,4.6 1.7,5.9 -0.1,0.7 -0.1,1.7 0,2.9 0,2.6 0.1,6.2 -1,8 -1.3,2.1 -0.4,4.4 0.5,6.9 0.5,1.4 1,2.8 1.2,4.2 0.3,2.3 -0.2,4.3 -0.8,6.6 -0.4,1.6 -0.8,3.3 -1,5.3 -0.1,0.700002 -0.1,1.300002 -0.2,1.900002 -0.3,3.8 -0.6,6.6 -3.5,11.2 -1.6,2.4 -2.6,5.7 -3.7,8.8 -1.4,4.1 -2.8,8.4 -5.1,10.2 -2.7,2.2 -3.3,4.4 -3.8,6.8 -0.4,1.6 -0.8,3.3 -2,5.1 -1.1,1.7 -2.1,2.9 -3,4.1 -1.6,2 -3,3.9 -4.7,7.5 -0.4,0.9 -0.8,1.7 -1.2,2.5 -1.6,3.3 -2.9,6.3 -3.5,9.3 l -80.4,1.4 0,0.2 0,0 0,-0.2 -39.8,0.7 -3.4,-163.0000018 145.7,-4.1 m 1.5,-0.8 -148,4.2 3.2,164.7000018 40.5,-0.7 0,-0.6 0,0.6 81,-1.5 c 0.7,-3.9 2.6,-7.6 4.8,-12.3 2.6,-5.6 4.7,-6.9 7.6,-11.5 2.9,-4.6 1.4,-8.3 5.7,-11.8 4.3,-3.5 5.4,-13.7 9,-19.3 3.5,-5.6 3.3,-8.6 3.8,-13.400002 0.5,-4.9 2.4,-8.1 1.8,-12.2 -0.5,-4 -3.6,-7.8 -1.8,-10.6 1.7,-2.8 0.9,-8.8 1.2,-11.2 0.3,-2.5 -2.7,-7.7 -3.3,-10.8 -0.7,-3 -1.4,-6 -4.7,-12.8 -3.2,-6.8 -1.8,-11 -1.8,-15.5 0,-4.5 0.3,-7.4 0.5,-8.8 0.1,-1.5 -1.9,-5.6 -3.1,-8.7999998 -1.1,-3.1 0.4,-3.9 3.3,-7.5 0.2,0.1 0.2,-0.1 0.3,-0.2 l 0,0 z"
     id="Sheboygan"
     style="fill:#ffffff" /><path
     d="m 168.44418,498.67601 163.6,-2.2 c 0.2,1.1 0.8,2.2 1.4,3.5 0.7,1.5 1.5,3.1 2,5.1 0.6,2.8 1.9,4.2 3.4,5.9 1,1.1 2,2.1 3,3.8 0.7,1.2 1.6,2.6 2.5,4 2.2,3.4 4.5,6.9 4.9,9 0.3,1.3 1.1,2.4 1.8,3.4 1,1.4 1.8,2.6 1.4,4.1 -0.3,1.1 -1.1,1.8 -2.1,2.5 -1.3,1 -2.8,2.2 -3.1,4.9 -0.2,2.3 0.2,4.1 0.6,5.9 0.4,1.8 0.8,3.5 0.6,5.6 -0.2,2.2 -0.2,4.4 -0.2,6.4 0,2.1 0.1,4.2 -0.2,6.4 -0.1,1.1 -0.1,2 -0.1,2.8 0.1,2.2 0.1,3.2 -3.7,6 -0.6,0.4 -1.1,0.9 -1.6,1.4 l -134.7,4.5 1.8,26.1 -39,0.9 -2.3,-110 z"
     id="Racinerec"
     style="fill:url(#SVGID_5_)" /><path
     d="m 331.84418,496.87601 c 0.3,1.1 0.8,2.2 1.3,3.3 0.7,1.5 1.5,3.1 1.9,5 0.6,2.9 2,4.5 3.5,6 1,1 2,2.1 2.9,3.7 0.7,1.2 1.6,2.6 2.5,4 2.1,3.2 4.4,6.9 4.9,8.9 0.3,1.4 1.1,2.6 1.8,3.6 1.1,1.5 1.7,2.5 1.3,3.8 -0.3,1 -1.1,1.6 -2,2.3 -1.3,1 -3,2.3 -3.3,5.1 -0.2,2.3 0.2,4.2 0.6,6 0.4,1.8 0.8,3.4 0.6,5.5 -0.2,2.2 -0.2,4.4 -0.2,6.5 0,2 0.1,4.2 -0.2,6.3 -0.1,1.2 -0.1,2.1 -0.1,2.8 0.1,2.1 0.1,3 -3.6,5.6 -0.5,0.4 -1.1,0.8 -1.5,1.3 l -134.1,4.5 -0.8,0 0.1,0.8 1.7,25.3 -38.3,0.9 -2.3,-109.3 79.4,-1.1 0,0.2 1.5,0 0,-0.2 82.4,-0.8 m 0.6,-0.8 -83.4,1.1 0,1 0,-1 -80.9,1.1 2.4,110.8 39.8,-0.9 -1.8,-26.1 134.4,-4.5 c 0.5,-0.5 1.1,-1 1.7,-1.4 5.3,-3.9 3.5,-4.6 3.9,-9 0.5,-4.4 -0.1,-8.4 0.3,-12.8 0.5,-4.4 -1.7,-7.1 -1.2,-11.5 0.5,-4.4 4.4,-4.5 5.2,-7.3 0.8,-2.9 -2.5,-4.7 -3.2,-7.7 -0.7,-3 -5,-8.9 -7.5,-13.1 -2.5,-4.2 -5.4,-5 -6.4,-9.5 -0.9,-4.1 -2.9,-6.7 -3.3,-9.2 l 0,0 z"
     id="Racine"
     style="fill:#ffffff" /><path
     d="m 246.24418,251.87601 7.8,-0.5 -3,-81.4 80.2,-1.4 c -0.1,0.6 -0.2,1.4 -0.2,2.2 0,2.6 1.1,4.2 2.1,5.7 1,1.5 1.9,2.9 1.7,5 -0.5,4.4 -1.1,10.2 -1.7,16.1 -0.3,2.8 0.2,5.5 0.6,7.9 0.4,2.5 0.8,4.7 0,5.8 -0.7,1 -0.7,1.6 -0.7,2.4 0,1.2 0,2.9 -2.8,7.1 -4.9,7.3 -11.8,16.3 -15.4,20.1 -4,4.3 -7.1,11 -7.7,16.7 -0.5,4.8 -2,19.3 -3.2,25.8 -0.6,3.4 -0.9,5.1 -1.2,7 -0.3,1.7 -0.6,3.6 -1.2,7 -0.6,3.4 -1.7,6 -2.7,8.5 -1.2,2.9 -2.3,5.5 -2.6,9.2 -0.5,4.6 2.4,7.8 4.7,10.4 1.3,1.4 2.4,2.7 2.7,3.9 0.3,0.9 0.3,1.6 0.2,2.3 l -56.4,0.5 -1.2,-80.3 z"
     id="OzaukeeRec"
     style="fill:url(#SVGID_6_)" /><path
     d="m 330.84418,168.97601 c -0.1,0.5 -0.1,1.2 -0.1,1.8 0,2.7 1.2,4.4 2.2,5.9 1,1.5 1.8,2.8 1.6,4.7 -0.5,4.4 -1.1,10.2 -1.7,16.1 -0.3,2.8 0.2,5.6 0.6,8 0.4,2.4 0.8,4.5 0.1,5.5 -0.8,1.1 -0.8,1.8 -0.8,2.7 0,1.2 0,2.8 -2.8,6.9 -4.9,7.3 -11.8,16.3 -15.4,20 -4.1,4.4 -7.2,11.1 -7.8,16.9 -0.5,4.8 -2,19.3 -3.2,25.8 -0.6,3.4 -0.9,5.1 -1.2,7 -0.3,1.7 -0.6,3.6 -1.2,7 -0.6,3.4 -1.6,6 -2.7,8.5 -1.2,2.9 -2.3,5.6 -2.7,9.3 -0.5,4.7 2.4,8 4.8,10.7 1.3,1.4 2.3,2.6 2.7,3.8 0.2,0.7 0.2,1.2 0.2,1.8 l -55.8,0.5 -1,-79.6 7.1,-0.4 0.7,0 0,-0.7 -3,-80.7 79.4,-1.5 m 0.8,-0.8 -81,1.5 3,81.4 -7.8,0.5 1,81.1 57.1,-0.5 c 0.2,-0.8 0.2,-1.7 -0.1,-2.8 -1.1,-3.6 -8.1,-7.3 -7.4,-14.1 0.7,-6.8 4.1,-10.4 5.3,-17.7 1.3,-7.3 1.3,-7.8 2.4,-14.1 1.2,-6.3 2.6,-20 3.2,-25.8 0.6,-5.8 3.8,-12.4 7.6,-16.5 3.9,-4 10.9,-13.2 15.5,-20.1 4.7,-6.9 1.8,-7.2 3.5,-9.5 1.7,-2.3 -1.2,-8 -0.5,-13.9 0.6,-5.9 1.2,-11.7 1.7,-16.1 0.5,-4.4 -3.8,-5.8 -3.8,-10.8 0.1,-0.9 0.2,-1.7 0.3,-2.6 l 0,0 z"
     id="Ozaukee"
     style="fill:#ffffff" /><path
     d="m 247.24418,332.97601 56.3,-0.5 c 0,0.2 -0.1,0.3 -0.1,0.5 -0.4,1.6 -0.9,3.5 0.5,6.9 0.5,1.3 1.1,2.4 1.6,3.4 1.8,3.6 2.9,6 1.4,9.9 -0.9,2.4 -2.2,4.1 -3.4,5.7 -1.4,1.9 -2.6,3.5 -2.8,5.7 -0.3,2.4 1.5,5.1 3.3,7.9 1.3,1.9 2.6,3.9 3.2,5.8 0.9,2.7 4.1,6.2 6.7,9.1 1.5,1.6 3.3,3.7 3.3,4.1 0,0.3 0,0.5 -0.1,0.9 -0.1,1.6 -0.2,3.9 -1.9,8.2 -1,2.5 -3.1,3.9 -5,5.1 -1.9,1.2 -3.7,2.3 -3.9,4.4 -0.4,4.1 -0.4,8.1 0.2,12.4 0.3,3.4 2.2,5.3 5.3,8.5 1.2,1.3 2.6,2.7 4.2,4.5 l 1.6,1.8 c 5,5.7 9.8,11.1 9.4,14.9 l -1.3,12.2 c -0.6,6.1 0.7,18.3 1.5,23.5 0.5,3.3 2.2,4.2 3.3,4.9 0.9,0.5 1.4,0.8 1.3,1.9 0,0.3 0,0.6 0,1 l -82.6,1.1 -2,-163.8 z"
     id="MilwaukeeRec"
     style="fill:url(#SVGID_7_)" /><path
     d="m 303.04418,332.87601 c 0,0 0,0 0,0 -0.4,1.7 -0.9,3.7 0.5,7.2 0.5,1.3 1.1,2.4 1.6,3.5 1.7,3.5 2.8,5.9 1.4,9.6 -0.9,2.3 -2.2,4.1 -3.3,5.6 -1.4,1.8 -2.6,3.5 -2.9,5.8 -0.3,2.5 1.5,5.3 3.4,8.1 1.2,1.9 2.5,3.9 3.1,5.7 0.9,2.8 4.1,6.3 6.7,9.2 1.4,1.5 3,3.4 3.2,3.9 0,0.3 0,0.5 -0.1,0.8 -0.1,1.5 -0.2,3.9 -1.8,8.1 -0.9,2.4 -2.9,3.7 -4.9,4.9 -2,1.2 -3.8,2.4 -4.1,4.7 -0.4,4.2 -0.4,8.2 0.2,12.5 0.4,3.5 2.3,5.5 5.4,8.8 1.2,1.3 2.6,2.7 4.2,4.5 0.5,0.6 1.1,1.2 1.6,1.8 5,5.6 9.7,10.9 9.3,14.6 l -0.2,2.1 -1.1,10.1 c -0.6,6.1 0.7,18.4 1.5,23.6 0.6,3.4 2.3,4.5 3.5,5.2 0.9,0.6 1.2,0.7 1.1,1.5 0,0.2 0,0.4 0,0.7 l -81.6,1.1 -2.1,-163.1 55.4,-0.5 m 1,-0.8 -57.1,0.5 2.1,164.6 83.4,-1.1 c -0.1,-0.4 -0.1,-0.9 -0.1,-1.3 0.3,-2.9 -3.7,-1.4 -4.7,-6.9 -0.9,-5.5 -2.1,-17.5 -1.5,-23.4 0.6,-5.8 0.8,-7.8 1.3,-12.2 0.5,-4.4 -5.3,-10.5 -11,-17 -5.7,-6.5 -9,-8.4 -9.5,-12.9 -0.6,-4.5 -0.6,-8.4 -0.2,-12.4 0.4,-3.9 6.8,-4.2 8.9,-9.4 2,-5.2 1.8,-7.7 2,-9.2 0.2,-1.5 -8.5,-8.8 -10,-13.4 -1.5,-4.6 -6.9,-9.6 -6.5,-13.5 0.4,-3.9 4.1,-6 6.1,-11.2 2,-5.2 -0.6,-8 -3,-13.6 -1.6,-3.9 -0.6,-5.7 -0.2,-7.6 l 0,0 z"
     id="Milwaukee"
     style="fill:#ffffff" /><path
     d="m 170.84418,609.47601 39.8,-0.9 -1.8,-26.1 133.1,-4.5 c -4.1,4.4 -5,10 -5.1,11.7 -0.2,1.7 0.5,2.9 1.2,4 0.8,1.2 1.6,2.5 1.3,4.7 -0.2,2.1 -1.2,3.4 -2.2,4.8 -1,1.4 -2.1,2.8 -2.3,5.1 -0.2,2.3 0.4,3.6 1.2,5.2 0.8,1.5 1.8,3.5 2.4,7.1 0.3,2.1 0.6,3.3 0.7,4.1 0.3,1.8 0.3,1.8 0.3,4 0,0.6 0,1.3 -0.1,2.3 -0.1,2.1 -0.3,3.3 -0.6,4.3 -0.5,2 -0.9,3.4 1.1,10.2 0.8,3 1.7,5.6 2.4,7.9 1.6,5 2.8,8.7 2.7,12.1 l -173,0.4 -1.1,-56.4 z"
     id="KenoshaRec"
     style="fill:url(#SVGID_8_)" /><path
     d="m 341.14418,578.27601 c -3.7,4.4 -4.5,9.6 -4.7,11.2 -0.2,1.9 0.6,3.1 1.3,4.2 0.8,1.2 1.5,2.4 1.3,4.5 -0.2,2 -1.1,3.3 -2.1,4.6 -1.1,1.4 -2.2,2.9 -2.4,5.3 -0.3,2.4 0.5,3.8 1.3,5.4 0.8,1.5 1.8,3.4 2.4,7 0.3,2.1 0.6,3.3 0.7,4.1 0.3,1.7 0.3,1.7 0.2,3.9 0,0.6 0,1.3 -0.1,2.3 -0.1,2.1 -0.3,3.2 -0.6,4.2 -0.5,2 -0.9,3.5 1.1,10.4 0.8,3 1.7,5.6 2.4,7.9 1.5,4.8 2.7,8.4 2.7,11.6 l -172.3,0.4 -1.2,-55.6 39,-0.9 0.8,0 -0.1,-0.8 -1.7,-25.4 132,-4.3 m 1.7,-0.8 -134.4,4.5 1.8,26.1 -39.8,0.9 1.2,57 173.7,-0.4 c 0.2,-5.1 -2.4,-10.8 -5.2,-20.5 -2.9,-10.2 -0.6,-8 -0.5,-14.4 0.2,-6.4 0.3,-2.9 -0.9,-10.5 -1.2,-7.5 -4.1,-7.8 -3.6,-12.2 0.5,-4.4 4.1,-5.5 4.5,-9.9 0.5,-4.4 -2.9,-5.3 -2.6,-8.7 0.5,-2.8 1.8,-8 5.8,-11.9 l 0,0 z"
     id="Kenosha"
     style="fill:#ffffff" /><text
     y="641.09784"
     x="194.29649"
     style="font-size:24.16060066px;font-family:Futura-Medium;fill:#ffffff"
     id="text125"
     font-size="24.1606">Kenosha</text>
<text
     y="587.46674"
     x="30.755682"
     style="font-size:24.16060066px;font-family:Futura-Medium;fill:#ffffff"
     id="text127"
     font-size="24.1606">Walworth</text>
<text
     y="421.99701"
     x="108.84019"
     style="font-size:24.16060066px;font-family:Futura-Medium;fill:#ffffff"
     id="text129"
     font-size="24.1606">Waukesha</text>
<text
     y="-59.997833"
     x="233.03886"
     style="font-size:24.15966988px;font-family:Futura-Medium;fill:#ffffff"
     id="text131"
     font-size="24.1606"
     transform="matrix(0.38971502,0.9209355,-0.9209355,0.38971502,0,0)">Washington</text>
<text
     y="-189.27162"
     x="251.3477"
     style="font-size:24.16049957px;font-family:Futura-Medium;fill:#ffffff"
     id="text133"
     font-size="24.1605"
     transform="matrix(0.30200228,0.9533072,-0.9533072,0.30200228,0,0)">Ozaukee</text>
<text
     y="-141.81728"
     x="419.0719"
     style="font-size:24.15986252px;font-family:ArialMT;fill:#ffffff"
     id="text135"
     font-size="24.1605"
     transform="matrix(0.28500752,0.95852528,-0.95852528,0.28500752,0,0)">Milwaukee</text>
<text
     y="558.86249"
     x="205.04939"
     style="font-size:24.16060066px;font-family:Futura-Medium;fill:#ffffff"
     id="text137"
     font-size="24.1606">Racine</text>
<text
     y="92.335503"
     x="227.12779"
     style="font-size:24.16060066px;font-family:Futura-Medium;fill:#ffffff"
     id="text139"
     font-size="24.1606">Sheboygan</text>
<flowRoot
     transform="translate(5.7441831,1.4760082)"
     style="font-style:normal;font-weight:normal;font-size:40px;line-height:125%;font-family:sans-serif;letter-spacing:0px;word-spacing:0px;fill:#000000;fill-opacity:1;stroke:none;stroke-width:1px;stroke-linecap:butt;stroke-linejoin:miter;stroke-opacity:1"
     id="flowRoot3539"
     xml:space="preserve"><flowRegion
       id="flowRegion3541"><rect
         y="11.68717"
         x="-115.70299"
         height="663.8313"
         width="625.26361"
         id="rect3543" /></flowRegion><flowPara
       id="flowPara3545"></flowPara></flowRoot></svg>