<?xml version="1.0" encoding="UTF-8" standalone="no"?>
<svg
   xmlns:dc="http://purl.org/dc/elements/1.1/"
   xmlns:cc="http://creativecommons.org/ns#"
   xmlns:rdf="http://www.w3.org/1999/02/22-rdf-syntax-ns#"
   xmlns:svg="http://www.w3.org/2000/svg"
   xmlns="http://www.w3.org/2000/svg"
   version="1.1"
   id="Layer_1"
   x="0px"
   y="0px"
   viewBox="0 0 373.6279 684.30695"
   enable-background="new 0 0 357.9 665"
   xml:space="preserve"
   width="373.6279"
   height="684.30695"><defs
     id="defs143"><linearGradient
       gradientTransform="translate(5.7441831,1.4760082)"
       y2="355.70691"
       x2="99.727798"
       y1="488.4407"
       x1="239.09821"
       gradientUnits="userSpaceOnUse"
       id="SVGID_1_"><stop
         id="stop7"
         style="stop-color:#FFE7A3"
         offset="0" /><stop
         id="stop9"
         style="stop-color:#FFCA05"
         offset="0.5" /><stop
         id="stop11"
         style="stop-color:#FAAC18"
         offset="1" /></linearGradient><linearGradient
       gradientTransform="matrix(1.0017811,0,0,1.0014081,5.5332991,1.2386034)"
       y2="195.56329"
       x2="141.7276"
       y1="324.89459"
       x1="237.2338"
       gradientUnits="userSpaceOnUse"
       id="SVGID_2_"><stop
         id="stop19"
         style="stop-color:#D471AD"
         offset="0" /><stop
         id="stop21"
         style="stop-color:#C7158C"
         offset="0.5" /><stop
         id="stop23"
         style="stop-color:#9D248E"
         offset="1" /></linearGradient><linearGradient
       gradientTransform="matrix(1.0013919,0,0,1,5.7436263,1.4760082)"
       y2="525.3064"
       x2="30.615601"
       y1="656.71759"
       x1="154.7262"
       gradientUnits="userSpaceOnUse"
       id="SVGID_3_"><stop
         id="stop31"
         style="stop-color:#2BC4F3"
         offset="0" /><stop
         id="stop33"
         style="stop-color:#00AEEE"
         offset="0.5" /><stop
         id="stop35"
         style="stop-color:#0095DA"
         offset="1" /></linearGradient><radialGradient
       gradientUnits="userSpaceOnUse"
       r="119.621"
       cy="159.8801"
       cx="319.16299"
       id="SVGID_4_"
       gradientTransform="translate(5.7441831,1.4760082)"><stop
         id="stop43"
         style="stop-color:#FFFFFF"
         offset="0" /><stop
         id="stop45"
         style="stop-color:#FCFDFB"
         offset="6.382171e-03" /><stop
         id="stop47"
         style="stop-color:#DFECD2"
         offset="0.1394" /><stop
         id="stop49"
         style="stop-color:#C9DFB2"
         offset="0.2759" /><stop
         id="stop51"
         style="stop-color:#B6D599"
         offset="0.4135" /><stop
         id="stop53"
         style="stop-color:#A8CE87"
         offset="0.5528" /><stop
         id="stop55"
         style="stop-color:#9EC97A"
         offset="0.6944" /><stop
         id="stop57"
         style="stop-color:#98C772"
         offset="0.8397" /><stop
         id="stop59"
         style="stop-color:#96C66F"
         offset="0.9944" /></radialGradient><linearGradient
       y2="533.75513"
       x2="216.0775"
       y1="594.81097"
       x1="320.27069"
       gradientUnits="userSpaceOnUse"
       id="SVGID_5_"
       gradientTransform="translate(5.7441831,1.4760082)"><stop
         id="stop67"
         style="stop-color:#D1E4A5"
         offset="0" /><stop
         id="stop69"
         style="stop-color:#ACD479"
         offset="0.5" /><stop
         id="stop71"
         style="stop-color:#76B83F"
         offset="1" /></linearGradient><linearGradient
       y2="210.6349"
       x2="270.742"
       y1="322.04141"
       x1="307.8775"
       gradientUnits="userSpaceOnUse"
       id="SVGID_6_"
       gradientTransform="translate(5.7441831,1.4760082)"><stop
         id="stop79"
         style="stop-color:#00A38A"
         offset="1.123600e-02" /><stop
         id="stop81"
         style="stop-color:#009675"
         offset="0.5" /><stop
         id="stop83"
         style="stop-color:#006A5A"
         offset="1" /></linearGradient><radialGradient
       gradientUnits="userSpaceOnUse"
       r="156.3391"
       cy="526.36969"
       cx="336.827"
       id="SVGID_7_"
       gradientTransform="translate(5.7441831,1.4760082)"><stop
         id="stop91"
         style="stop-color:#FFFFFF"
         offset="0" /><stop
         id="stop93"
         style="stop-color:#D4DEEF"
         offset="8.400899e-02" /><stop
         id="stop95"
         style="stop-color:#A0B9DD"
         offset="0.2167" /><stop
         id="stop97"
         style="stop-color:#779ECF"
         offset="0.3511" /><stop
         id="stop99"
         style="stop-color:#538BC4"
         offset="0.4845" /><stop
         id="stop101"
         style="stop-color:#2F7FBD"
         offset="0.6167" /><stop
         id="stop103"
         style="stop-color:#0076B8"
         offset="0.7474" /><stop
         id="stop105"
         style="stop-color:#0072B5"
         offset="0.876" /><stop
         id="stop107"
         style="stop-color:#0071B5"
         offset="1" /></radialGradient><linearGradient
       y2="601.60309"
       x2="219.4169"
       y1="667.23541"
       x1="330.793"
       gradientUnits="userSpaceOnUse"
       id="SVGID_8_"
       gradientTransform="translate(5.7441831,1.4760082)"><stop
         id="stop115"
         style="stop-color:#F37F7B"
         offset="0" /><stop
         id="stop117"
         style="stop-color:#ED3D57"
         offset="0.5" /><stop
         id="stop119"
         style="stop-color:#DD1E47"
         offset="1" /></linearGradient></defs><path
     id="Waukeesha"
     d="m 246.54418,332.97601 c 0.7,54.63333 1.4,109.26667 2.1,163.9 -53.56667,0.7 -107.13333,1.4 -160.699997,2.1 -0.9,-54.83333 -1.8,-109.66667 -2.7,-164.5 53.766667,-0.5 107.533327,-1 161.299997,-1.5 z"
     style="fill:url(#SVGID_1_)" /><path
     id="Washington"
     d="m 130.65576,254.09415 -1.10196,-81.91518 80.34284,-1.40197 0,1.20169 0.80143,0 0,-1.20169 39.87089,-0.70099 2.90516,80.71349 -7.81389,0.50071 1.10196,81.21419 -121.41587,1.10155 -1.20214,-79.5118 z"
     style="fill:url(#SVGID_2_)" /><path
     id="Walworth"
     d="m 170.17218,609.47601 0.20027,0 1.20167,56.3 -161.524508,0.4 -3.9054289,-165.4 161.8249269,-2.1 2.30321,110.1 -0.10014,0 z"
     style="fill:url(#SVGID_3_)" /><path
     style="fill:url(#SVGID_4_)"
     id="Sheboygan"
     d="m 206.44418,6.0760082 146.9,-4.2 c -0.5,0.6 -0.9,1 -1.2,1.5 -2,2.3 -2.9,3.4 -1.9,6.0999998 0.3,0.9 0.8,1.9 1.2,2.9 0.9,2.2 2,4.7 1.9,5.7 -0.1,1.3 -0.5,4.3 -0.5,8.9 0,1 -0.1,2 -0.1,3.1 -0.2,3.4 -0.5,7.3 2,12.5 3.2,6.6 3.9,9.7 4.6,12.6 l 0,0.2 c 0.3,1.3 0.9,2.9 1.6,4.6 0.9,2.3 1.9,4.7 1.7,6.1 -0.1,0.7 -0.1,1.7 0,2.9 0,2.7 0.1,6.3 -1.1,8.2 -1.2,1.9 -0.4,4.2 0.5,6.6 0.5,1.4 1,2.8 1.2,4.2 0.3,2.3 -0.2,4.4 -0.8,6.8 -0.4,1.6 -0.8,3.300002 -1,5.300002 -0.1,0.7 -0.1,1.3 -0.2,1.9 -0.4,3.9 -0.6,6.7 -3.6,11.4 -1.5,2.4 -2.6,5.6 -3.6,8.8 -1.4,4.2 -2.8,8.5 -5.2,10.4 -2.6,2.1 -3.1,4.3 -3.7,6.6 -0.4,1.7 -0.8,3.4 -2,5.2 -1.1,1.7 -2.1,2.9 -3,4.1 -1.5,2 -3,3.9 -4.7,7.4 -0.4,0.9 -0.8,1.7 -1.2,2.5 -1.6,3.4 -3,6.4 -3.6,9.5 l -120.9,2.2 -3.3,-164.0000018 z" /><path
     style="fill:url(#SVGID_5_)"
     id="Racine"
     d="m 168.44418,498.67601 163.6,-2.2 c 0.2,1.1 0.8,2.2 1.4,3.5 0.7,1.5 1.5,3.1 2,5.1 0.6,2.8 1.9,4.2 3.4,5.9 1,1.1 2,2.1 3,3.8 0.7,1.2 1.6,2.6 2.5,4 2.2,3.4 4.5,6.9 4.9,9 0.3,1.3 1.1,2.4 1.8,3.4 1,1.4 1.8,2.6 1.4,4.1 -0.3,1.1 -1.1,1.8 -2.1,2.5 -1.3,1 -2.8,2.2 -3.1,4.9 -0.2,2.3 0.2,4.1 0.6,5.9 0.4,1.8 0.8,3.5 0.6,5.6 -0.2,2.2 -0.2,4.4 -0.2,6.4 0,2.1 0.1,4.2 -0.2,6.4 -0.1,1.1 -0.1,2 -0.1,2.8 0.1,2.2 0.1,3.2 -3.7,6 -0.6,0.4 -1.1,0.9 -1.6,1.4 l -134.7,4.5 1.8,26.1 -39,0.9 -2.3,-110 z" /><path
     style="fill:url(#SVGID_6_)"
     id="Ozaukee"
     d="m 246.24418,251.87601 7.8,-0.5 -3,-81.4 80.2,-1.4 c -0.1,0.6 -0.2,1.4 -0.2,2.2 0,2.6 1.1,4.2 2.1,5.7 1,1.5 1.9,2.9 1.7,5 -0.5,4.4 -1.1,10.2 -1.7,16.1 -0.3,2.8 0.2,5.5 0.6,7.9 0.4,2.5 0.8,4.7 0,5.8 -0.7,1 -0.7,1.6 -0.7,2.4 0,1.2 0,2.9 -2.8,7.1 -4.9,7.3 -11.8,16.3 -15.4,20.1 -4,4.3 -7.1,11 -7.7,16.7 -0.5,4.8 -2,19.3 -3.2,25.8 -0.6,3.4 -0.9,5.1 -1.2,7 -0.3,1.7 -0.6,3.6 -1.2,7 -0.6,3.4 -1.7,6 -2.7,8.5 -1.2,2.9 -2.3,5.5 -2.6,9.2 -0.5,4.6 2.4,7.8 4.7,10.4 1.3,1.4 2.4,2.7 2.7,3.9 0.3,0.9 0.3,1.6 0.2,2.3 l -56.4,0.5 -1.2,-80.3 z" /><path
     id="Milwaukee"
     d="m 247.24418,332.97601 c 18.76667,-0.16667 37.53333,-0.33333 56.3,-0.5 -2.98381,7.69089 7.3217,13.97639 3.04473,21.56836 -1.93521,4.62887 -8.15036,8.76869 -4.98223,14.33164 3.73635,5.13957 5.65577,11.33788 9.81272,16.14819 4.73613,3.93759 7.66293,9.33172 4.12517,15.26868 -1.47259,5.85174 -10.75977,6.27625 -9.42227,13.34563 -0.18596,6.09642 -0.28577,13.1894 5.15479,17.25205 5.48393,6.17697 12.01998,11.86189 15.47661,19.48777 0.59757,4.79617 -0.75259,9.6696 -1.00952,14.49768 -0.34381,8.53553 0.29414,17.22048 2.07188,25.55937 2.51789,2.15669 6.70664,6.80031 0.70188,5.78493 -26.42459,0.3519 -52.84917,0.7038 -79.27376,1.0557 -0.66667,-54.6 -1.33333,-109.2 -2,-163.8 z"
     style="fill:#dd1e47;fill-opacity:1" /><path
     style="fill:url(#SVGID_8_)"
     id="Kenosha"
     d="m 170.84418,609.47601 39.8,-0.9 -1.8,-26.1 133.1,-4.5 c -4.1,4.4 -5,10 -5.1,11.7 -0.2,1.7 0.5,2.9 1.2,4 0.8,1.2 1.6,2.5 1.3,4.7 -0.2,2.1 -1.2,3.4 -2.2,4.8 -1,1.4 -2.1,2.8 -2.3,5.1 -0.2,2.3 0.4,3.6 1.2,5.2 0.8,1.5 1.8,3.5 2.4,7.1 0.3,2.1 0.6,3.3 0.7,4.1 0.3,1.8 0.3,1.8 0.3,4 0,0.6 0,1.3 -0.1,2.3 -0.1,2.1 -0.3,3.3 -0.6,4.3 -0.5,2 -0.9,3.4 1.1,10.2 0.8,3 1.7,5.6 2.4,7.9 1.6,5 2.8,8.7 2.7,12.1 l -173,0.4 -1.1,-56.4 z" /><path
     d="m 290.16028,634.45603 q -2.63077,0 -3.64532,0.60166 -1.01456,0.60165 -1.01456,2.05271 0,1.15612 0.75502,1.84035 0.76682,0.67244 2.0763,0.67244 1.80497,0 2.89031,-1.27409 1.09713,-1.28589 1.09713,-3.40938 l 0,-0.48369 -2.15888,0 z m 4.32956,-0.89658 0,7.53839 -2.17068,0 0,-2.00552 q -0.74322,1.20331 -1.85215,1.78137 -1.10894,0.56627 -2.71335,0.56627 -2.02911,0 -3.23242,-1.13253 -1.19152,-1.14433 -1.19152,-3.05547 0,-2.22966 1.48644,-3.36219 1.49825,-1.13253 4.45933,-1.13253 l 3.04367,0 0,-0.21235 q 0,-1.49824 -0.99096,-2.31224 -0.97916,-0.8258 -2.76054,-0.8258 -1.13252,0 -2.20607,0.27133 -1.07354,0.27134 -2.0645,0.81401 l 0,-2.00552 q 1.19151,-0.46009 2.31224,-0.68424 1.12074,-0.23594 2.18248,-0.23594 2.86671,0 4.28237,1.48644 1.41566,1.48644 1.41566,4.50652 z m -14.68747,-0.4365 0,7.97489 -2.17068,0 0,-7.9041 q 0,-1.87575 -0.73143,-2.80773 -0.73142,-0.93198 -2.19427,-0.93198 -1.75778,0 -2.77233,1.12074 -1.01456,1.12073 -1.01456,3.05546 l 0,7.46761 -2.18248,0 0,-18.35639 2.18248,0 0,7.19627 q 0.77861,-1.19152 1.82856,-1.78137 1.06175,-0.58986 2.44202,-0.58986 2.27685,0 3.44477,1.41566 1.16792,1.40386 1.16792,4.1408 z m -15.15936,-4.84863 0,2.0527 q -0.92018,-0.47188 -1.91114,-0.70783 -0.99096,-0.23594 -2.05271,-0.23594 -1.61621,0 -2.43022,0.49548 -0.8022,0.49548 -0.8022,1.48645 0,0.75501 0.57806,1.19151 0.57806,0.4247 2.32404,0.814 l 0.74322,0.16516 q 2.31225,0.49549 3.27961,1.40387 0.97917,0.89658 0.97917,2.51279 0,1.84036 -1.46285,2.9139 -1.45105,1.07355 -3.99924,1.07355 -1.06174,0 -2.21787,-0.21235 -1.14432,-0.20055 -2.41842,-0.61345 l 0,-2.24147 q 1.20331,0.62525 2.37123,0.94378 1.16792,0.30672 2.31225,0.30672 1.53363,0 2.35943,-0.51907 0.8258,-0.53087 0.8258,-1.48645 0,-0.88478 -0.60165,-1.35667 -0.58986,-0.47189 -2.60717,-0.90838 l -0.75502,-0.17696 q -2.01732,-0.4247 -2.9139,-1.29769 -0.89659,-0.88479 -0.89659,-2.41842 0,-1.86395 1.32128,-2.87851 1.32129,-1.01455 3.7515,-1.01455 1.20331,0 2.26506,0.17695 1.06174,0.17696 1.95833,0.53088 z m -18.07327,1.13253 q -1.74598,0 -2.76053,1.36847 -1.01456,1.35667 -1.01456,3.7279 0,2.37123 1.00276,3.7397 1.01456,1.35668 2.77233,1.35668 1.73419,0 2.74874,-1.36847 1.01456,-1.36847 1.01456,-3.72791 0,-2.34763 -1.01456,-3.71611 -1.01455,-1.38026 -2.74874,-1.38026 z m 0,-1.84036 q 2.83133,0 4.44754,1.84036 1.61621,1.84035 1.61621,5.09637 0,3.24422 -1.61621,5.09638 -1.61621,1.84036 -4.44754,1.84036 -2.84311,0 -4.45932,-1.84036 -1.60442,-1.85216 -1.60442,-5.09638 0,-3.25602 1.60442,-5.09637 1.61621,-1.84036 4.45932,-1.84036 z m -9.47312,5.55646 0,7.97489 -2.17068,0 0,-7.9041 q 0,-1.87575 -0.73142,-2.80773 -0.73143,-0.93198 -2.19428,-0.93198 -1.75777,0 -2.77233,1.12074 -1.01456,1.12073 -1.01456,3.05546 l 0,7.46761 -2.18247,0 0,-13.21283 2.18247,0 0,2.05271 q 0.77862,-1.19152 1.82856,-1.78137 1.06175,-0.58986 2.44202,-0.58986 2.27685,0 3.44477,1.41566 1.16792,1.40386 1.16792,4.1408 z m -14.52231,0.82581 0,1.06174 -9.98041,0 q 0.14157,2.24146 1.34488,3.42118 1.21511,1.16792 3.37399,1.16792 1.2505,0 2.41842,-0.30673 1.17972,-0.30672 2.33584,-0.92018 l 0,2.05271 q -1.16792,0.49548 -2.39483,0.75502 -1.2269,0.25954 -2.4892,0.25954 -3.16164,0 -5.0138,-1.84036 -1.84035,-1.84036 -1.84035,-4.97841 0,-3.24422 1.74598,-5.14356 1.75777,-1.91114 4.73066,-1.91114 2.66616,0 4.21159,1.72238 1.55723,1.71059 1.55723,4.65989 z m -2.17068,-0.63705 q -0.0236,-1.78137 -1.00276,-2.84312 -0.96737,-1.06174 -2.57178,-1.06174 -1.81677,0 -2.91391,1.02635 -1.08533,1.02635 -1.25049,2.89031 l 7.73894,-0.0118 z m -23.73591,-9.82704 c 0.79434,0 1.58869,0 2.38303,0 0,2.48134 0,4.96267 0,7.44401 2.6347,-2.48134 5.26941,-4.96267 7.90411,-7.44401 1.02242,0 2.04484,0 3.06726,0 -2.9139,2.73694 -5.8278,5.47389 -8.7417,8.21083 3.12232,3.13411 6.24463,6.26823 9.36695,9.40234 -1.04602,0 -2.09203,0 -3.13805,0 -2.81952,-2.82739 -5.63905,-5.65477 -8.45857,-8.48216 0,2.82739 0,5.65477 0,8.48216 -0.79434,0 -1.58869,0 -2.38303,0 0,-5.87106 0,-11.74211 0,-17.61317 z"
     style="font-size:24.16060066px;font-family:Futura-Medium;fill:#ffffff"
     id="KenoshaText" /><path
     id="WalworthText"
     d="m 31.557889,569.85356 c 1.524378,-0.16006 2.942797,-0.18457 2.839096,1.73816 1.090613,4.38329 2.181225,8.76658 3.271838,13.14987 1.230838,-4.96268 2.461675,-9.92535 3.692513,-14.88803 1.398704,0.0209 3.203198,-0.47725 3.056372,1.52089 1.108632,4.45571 2.217264,8.91143 3.325896,13.36714 1.230838,-4.96268 2.461676,-9.92535 3.692514,-14.88803 1.603562,-0.15626 3.049751,-0.1898 1.982085,1.7372 -1.329201,5.29199 -2.658402,10.58398 -3.987604,15.87598 -1.165308,-0.26293 -3.353223,0.77507 -3.260876,-1.0878 -1.150571,-4.73378 -2.301142,-9.46756 -3.451712,-14.20133 -1.2505,5.09637 -2.501,10.19275 -3.7515,15.28913 -1.167152,-0.26248 -3.347787,0.77373 -3.268505,-1.08592 -1.380039,-5.50909 -2.760078,-11.01817 -4.140117,-16.52726 z m 29.823241,10.97137 c -4.151722,-1.61958 -6.813442,5.05226 -1.828561,5.16716 2.559949,1.04251 6.099358,-5.58768 2.644079,-5.16716 -0.271839,0 -0.543679,0 -0.815518,0 z m 4.329561,-0.89658 c 0,2.51279 0,5.02559 0,7.53839 -1.734422,0.34235 -2.6272,-0.15694 -2.170679,-2.00552 -2.087046,4.03989 -9.834563,2.66424 -8.966217,-2.38063 0.172987,-3.50217 4.237058,-4.19999 7.042017,-3.95445 4.165155,0.94042 0.273904,-4.80726 -2.389877,-3.33344 -2.04726,0.73211 -5.227614,1.30474 -3.116665,-1.15244 3.123577,-1.18878 8.108968,-1.25374 9.247506,2.65142 0.265894,0.85128 0.352667,1.7483 0.353915,2.63667 z M 70.2644,569.11034 c 1.74205,-0.34681 2.625027,0.16546 2.170679,2.01505 0,5.44711 0,10.89423 0,16.34135 -1.74205,0.3468 -2.625026,-0.16546 -2.170679,-2.01505 0,-5.44712 0,-10.89423 0,-16.34135 z m 5.438494,5.14357 c 1.653789,-0.33539 2.667134,0.16001 2.683494,1.9487 0.733511,2.78734 1.467022,5.57468 2.200533,8.36202 0.900518,-3.43691 1.801035,-6.87381 2.701552,-10.31072 1.379974,-0.005 3.091473,-0.44102 2.958842,1.51565 0.771497,2.93169 1.542995,5.86338 2.314492,8.79507 0.900517,-3.43691 1.801035,-6.87381 2.701552,-10.31072 1.829823,-0.33552 2.583151,0.16007 1.660691,1.94944 -0.982194,3.75446 -1.964388,7.50892 -2.946583,11.26339 -1.379976,0.005 -3.091732,0.44108 -2.957947,-1.51589 -0.815052,-3.10464 -1.630104,-6.20928 -2.445156,-9.31391 -0.951638,3.60993 -1.903276,7.21986 -2.854914,10.8298 -1.379982,0.005 -3.092113,0.44118 -2.956643,-1.51624 -1.019971,-3.89886 -2.039942,-7.79773 -3.059913,-11.69659 z m 26.154316,1.52183 c -4.398911,0.29701 -4.834625,6.83798 -2.2186,9.42963 4.33444,3.02342 7.34211,-3.36927 5.58559,-6.88531 -0.47484,-1.43318 -1.79065,-2.6222 -3.36699,-2.54432 z m 0,-1.84036 c 4.77986,-0.34381 7.00547,5.19886 5.83647,9.17415 -0.63598,5.25267 -8.665867,6.44505 -10.997727,1.84588 -2.167149,-4.16699 -0.611448,-11.33495 5.161257,-11.02003 z m 17.30645,2.34764 c -3.67351,-1.90413 -6.26862,2.29114 -5.55647,5.56675 0,1.87232 0,3.74464 0,5.61697 -1.74135,0.34218 -2.6404,-0.15795 -2.18247,-2.01505 0,-3.73259 0,-7.46519 0,-11.19778 1.74135,-0.34218 2.6404,0.15795 2.18247,2.01504 0.66929,-2.03273 6.41222,-3.98361 5.55415,-0.42447 l 0.001,0.22389 0.001,0.21465 z m 4.44753,-5.78061 c 0.26968,1.13008 -0.55835,3.35787 0.44779,3.7515 1.26886,0.14688 3.12688,-0.2954 4.02334,0.22389 0.65362,2.0369 -1.38246,1.3841 -2.68673,1.4631 -2.00745,-0.59171 -1.92754,0.90395 -1.7844,2.46284 0.14321,2.25879 -0.36277,4.64132 0.4365,6.78614 1.15959,1.31449 4.70213,-0.79303 4.03463,1.80346 -0.86731,1.09321 -4.37772,0.44933 -5.69803,-0.45858 -1.62465,-2.52641 -0.71738,-5.71838 -0.95557,-8.57074 0.48413,-1.76401 -0.40151,-2.15824 -1.59262,-2.24701 -0.95901,-2.27611 2.02208,-0.61211 1.59262,-2.35868 0.16287,-1.23688 -0.68479,-3.48431 1.34336,-2.85592 0.2797,0 0.55941,0 0.83911,0 z m 18.32101,8.98944 c 0,2.6583 0,5.31659 0,7.97489 -1.74205,0.3468 -2.62503,-0.16546 -2.17068,-2.01505 -0.20641,-2.89651 0.55244,-6.01597 -0.73143,-8.69678 -3.07443,-2.88217 -6.90579,1.16761 -5.98116,4.58758 0,2.04142 0,4.08283 0,6.12425 -1.74136,0.34218 -2.6404,-0.15795 -2.18248,-2.01505 0,-5.44712 0,-10.89423 0,-16.34135 1.74136,-0.34218 2.6404,0.15795 2.18248,2.01505 0,1.72707 0,3.45415 0,5.18122 1.86031,-3.61464 8.32844,-3.02137 8.71903,1.32 0.11977,0.61392 0.16385,1.24053 0.16424,1.86524 z"
     style="font-size:24.16060066px;font-family:Futura-Medium;fill:#ffffff" /><path
     id="WaukeshaText"
     d="m 109.64239,404.38384 c 1.80441,-0.34802 2.95097,0.14554 2.93552,2.12567 1.05847,4.25412 2.11694,8.50824 3.17542,12.76235 1.23084,-4.96267 2.46167,-9.92535 3.69251,-14.88802 1.48242,-0.028 3.27561,-0.45351 3.08932,1.6533 1.09765,4.41158 2.1953,8.82315 3.29295,13.23472 1.23084,-4.96267 2.46168,-9.92535 3.69251,-14.88802 1.97658,-0.34337 2.89542,0.13819 1.88481,2.12449 -1.29678,5.1629 -2.59355,10.32579 -3.89033,15.48868 -1.36138,-0.15803 -3.52696,0.70702 -3.34137,-1.41901 -1.12374,-4.62337 -2.24748,-9.24675 -3.37121,-13.87012 -1.2505,5.09638 -2.501,10.19275 -3.7515,15.28913 -1.3625,-0.15775 -3.52201,0.7058 -3.35133,-1.41656 -1.35244,-5.39887 -2.70487,-10.79774 -4.0573,-16.19661 z m 29.82325,10.97136 c -4.15173,-1.61958 -6.81345,5.05226 -1.82857,5.16716 2.96374,0.9104 6.23616,-6.23329 2.04035,-5.16716 l -0.21178,0 z m 4.32956,-0.89658 c 0,2.5128 0,5.02559 0,7.53839 -2.45621,1.29583 -1.97504,-2.25815 -2.56515,-1.44294 -3.3077,4.56438 -11.51222,-0.14292 -7.75885,-5.1303 2.06043,-2.30222 5.38542,-1.66576 8.15332,-1.76736 0.32216,-4.88239 -6.46324,-2.81813 -8.02208,-2.75183 -0.45797,-3.21533 4.97143,-2.4409 6.99867,-2.06731 2.39826,0.71483 3.2739,3.34992 3.19409,5.62135 z m 4.32956,2.32404 c 0,-2.66616 0,-5.33232 0,-7.99848 2.059,-0.52414 2.50984,0.55986 2.17068,2.43387 0.20008,2.76417 -0.54099,5.75193 0.73142,8.30155 3.30818,2.98015 6.96785,-1.45484 5.99296,-4.94793 0,-1.92916 0,-3.85833 0,-5.78749 2.059,-0.52414 2.50984,0.55986 2.17068,2.43387 0,3.59299 0,7.18597 0,10.77896 -2.48198,1.29766 -1.95507,-2.28034 -2.5821,-1.4658 -3.0373,3.85773 -9.22743,1.17442 -8.48364,-3.74855 z m 15.47788,-13.14204 c 2.0583,-0.51952 2.52693,0.55064 2.18248,2.43387 0,2.80257 0,5.60515 0,8.40772 2.15888,-1.89934 4.31776,-3.79869 6.47665,-5.69803 1.50691,-0.006 3.84627,-0.32596 1.4947,1.12707 -1.90996,1.68488 -3.81993,3.36976 -5.72989,5.05465 2.43415,2.3437 4.8683,4.68741 7.30245,7.03111 -1.51033,-0.003 -3.16568,0.35341 -4.05954,-1.18073 -1.82812,-1.75744 -3.65625,-3.51488 -5.48437,-5.27232 0,2.15102 0,4.30203 0,6.45305 -2.0583,0.51952 -2.52692,-0.55064 -2.18248,-2.43387 0,-5.30751 0,-10.61502 0,-15.92252 z m 24.50272,11.20731 c 0.47075,1.96047 -2.2661,0.71334 -3.40742,1.06174 -2.191,0 -4.38199,0 -6.57299,0 -0.25973,5.4407 6.69019,5.02595 9.47313,3.60558 0.72104,3.53049 -4.87361,2.80112 -7.07111,2.56508 -6.4773,-1.39878 -6.15296,-12.50369 0.39907,-13.49523 3.97335,-0.99805 7.51141,2.25041 7.17932,6.26283 z m -2.17068,-0.63705 c 0.92365,-6.17377 -9.82246,-3.62291 -7.00878,0.0107 2.33626,-0.004 4.67252,-0.007 7.00878,-0.0107 z m 14.10941,-5.03739 c 0.94772,3.8948 -3.26078,-0.0528 -5.3795,1.2328 -4.66686,2.22069 1.33007,4.23742 3.80458,4.62744 5.30336,2.41158 0.19993,8.90207 -4.26467,7.25231 -2.21889,0.91173 -5.02288,-2.38178 -2.95151,-2.72072 2.43749,2.33613 10.30127,0.3007 5.72089,-2.86819 -4.13982,0.13426 -9.17017,-4.53414 -4.17472,-7.66078 2.2844,-0.93166 4.96148,-0.65881 7.24493,0.13714 z m 15.15937,4.84863 c 0,2.6583 0,5.31659 0,7.97489 -2.059,0.52414 -2.50984,-0.55986 -2.17068,-2.43387 -0.2009,-2.75615 0.54235,-5.73794 -0.73142,-8.27796 -3.31227,-2.98226 -6.9564,1.4565 -5.98117,4.94793 0,1.9213 0,3.8426 0,5.7639 -2.0583,0.51952 -2.52692,-0.55064 -2.18247,-2.43387 0,-5.30751 0,-10.61502 0,-15.92252 2.0583,-0.51952 2.52692,0.55064 2.18247,2.43387 0,1.58747 0,3.17493 0,4.7624 2.22037,-4.20948 9.39211,-2.3921 8.86502,2.52183 l 0.0182,0.6634 z m 10.35791,1.33308 c -4.15172,-1.61958 -6.81344,5.05226 -1.82856,5.16716 2.96374,0.9104 6.23615,-6.23329 2.04035,-5.16716 l -0.21179,0 z m 4.32957,-0.89658 c 0,2.5128 0,5.02559 0,7.53839 -2.45621,1.29583 -1.97504,-2.25815 -2.56515,-1.44294 -3.3077,4.56438 -11.51222,-0.14292 -7.75885,-5.1303 2.06043,-2.30222 5.38542,-1.66576 8.15332,-1.76736 0.32216,-4.88239 -6.46324,-2.81813 -8.02208,-2.75183 -0.45797,-3.21533 4.97143,-2.4409 6.99867,-2.06731 2.39826,0.71483 3.2739,3.34992 3.19409,5.62135 z"
     style="font-size:24.16060066px;font-family:Futura-Medium;fill:#ffffff" /><path
     id="WashingtonText"
     d="m 162.60547,185.1066 c 1.68881,2.01113 0.0443,3.12427 -1.71281,4.20708 -3.20538,2.40745 -6.41076,4.8149 -9.61614,7.22235 5.04978,-0.80048 10.09957,-1.60095 15.14935,-2.40143 1.51586,1.95636 0.64502,3.26976 -1.36609,4.27597 -3.28571,2.46778 -6.57141,4.93555 -9.85712,7.40332 5.04978,-0.80047 10.09957,-1.60095 15.14936,-2.40143 1.7452,2.24643 0.16386,2.64034 -2.03543,2.69012 -4.9887,0.77562 -9.97739,1.55124 -14.9661,2.32686 -1.2635,-1.89456 -1.27416,-3.44796 1.00981,-4.37652 3.48469,-2.58776 6.96938,-5.17552 10.45406,-7.76328 -5.18057,0.83447 -10.36115,1.66895 -15.54172,2.50342 -1.26167,-1.8921 -1.27491,-3.44895 0.9984,-4.39176 4.11148,-3.09824 8.22296,-6.19646 12.33443,-9.2947 z m 1.51859,31.73977 c -0.45111,-5.94366 -8.96033,-2.68569 -4.54442,1.70211 1.61882,1.48796 7.19772,1.61975 4.54442,-1.70211 z m 2.51289,3.6377 c -2.31403,0.97923 -4.62807,1.95847 -6.9421,2.93771 -2.63644,-2.44072 3.0684,-2.68203 -0.85196,-3.43028 -6.29022,-3.28885 0.70243,-12.87496 5.22863,-6.9017 1.66708,1.06963 1.64808,7.38097 4.15176,3.76078 2.12238,-2.83782 -5.39453,-9.33689 -0.0601,-6.80523 3.12913,3.23641 3.53593,8.88371 -1.52622,10.43872 z m 9.92417,9.89079 c -3.79882,3.04388 -1.04011,-8.13254 -6.2164,-5.02625 -0.13059,3.6127 1.28008,11.55009 -5.21344,9.04324 -3.15958,-1.0641 -4.80746,-9.9552 -1.56589,-8.06302 -1.62371,3.75829 5.03391,9.78714 4.78907,3.38061 -2.81263,-4.72947 3.78607,-10.20211 6.70774,-4.53019 0.8545,1.59625 1.43713,3.37605 1.49892,5.19561 z m 1.4425,15.84977 c -2.44803,1.03594 -4.89605,2.07188 -7.34408,3.10782 -1.8442,-2.14262 0.43325,-2.61469 2.20701,-3.2909 2.35889,-1.3474 6.18688,-1.54465 6.81396,-4.67041 -0.28921,-4.54124 -5.32119,-3.81483 -8.10371,-2.0724 -1.49992,0.14966 -3.99951,2.76574 -4.73141,1.02049 -1.45243,-1.98683 2.27863,-1.87273 3.38737,-2.82149 4.33962,-1.83641 8.67925,-3.67282 13.01887,-5.50923 1.84147,2.14452 -0.41673,2.62738 -2.20242,3.30176 -2.03544,0.95864 -5.13186,1.4732 -1.22107,2.50219 3.22018,2.49085 2.12965,7.3997 -1.82452,8.43217 z m 6.52004,1.9676 c 1.8442,2.14261 -0.43324,2.61468 -2.20701,3.29089 -3.03826,1.28571 -6.07651,2.57141 -9.11477,3.85712 -1.8442,-2.14261 0.43325,-2.61468 2.20702,-3.29089 3.03825,-1.28571 6.07651,-2.57141 9.11476,-3.85712 z m 4.73671,-2.00445 c 1.83937,1.72777 -0.39935,3.15558 -1.80285,2.79263 -1.59952,-2.0867 0.23382,-2.03028 1.80285,-2.79263 z m -2.66889,20.33083 c -2.44803,1.03593 -4.89605,2.07187 -7.34408,3.10781 -1.8442,-2.14262 0.43325,-2.61468 2.20702,-3.2909 2.35888,-1.34739 6.18687,-1.54465 6.81396,-4.6704 -0.28922,-4.54124 -5.3212,-3.81483 -8.10372,-2.07241 -1.49992,0.14967 -3.99951,2.76574 -4.73141,1.02049 -1.45243,-1.98683 2.27864,-1.87273 3.38738,-2.82148 2.76071,-1.16826 5.52143,-2.33652 8.28215,-3.50479 2.4259,2.75999 -3.23311,2.60048 1.31322,3.79951 3.22018,2.49084 2.12965,7.39969 -1.82452,8.43217 z m 3.96568,12.48913 c 7.02372,-1.84787 1.29905,-11.07219 -3.87952,-6.3242 -5.29119,2.52755 -0.86698,9.3408 3.87952,6.3242 z m -3.86907,3.99422 c -4.80989,3.34377 -10.8093,-3.01928 -8.92342,-7.31686 3.09353,-1.91029 0.44568,6.56494 4.96648,5.98591 2.32993,-0.0396 5.39595,-1.00787 1.46206,-1.8404 -4.70421,-3.91951 0.22987,-10.43216 5.29762,-10.43349 5.77717,-1.8962 6.22408,6.88128 5.99468,7.52507 1.90285,-1.14176 2.45339,2.73476 -0.0826,2.39189 -2.90494,1.2293 -5.80989,2.45859 -8.71483,3.68788 z m 16.69147,0.12274 c -1.43594,0.83194 -4.60182,0.96272 -2.75007,3.1272 1.77477,1.44844 0.0499,4.51814 -0.98563,1.99949 -0.62395,-2.02243 -1.33232,-3.83658 -3.49292,-2.06773 -2.0328,1.02846 -4.45877,1.47348 -6.12697,3.06672 0.4154,1.48044 1.82474,5.63518 -0.75935,4.04771 -2.29234,-3.21692 -1.07398,-7.19977 3.03849,-7.85589 1.73921,-0.73599 3.47842,-1.47197 5.21763,-2.20796 -1.61805,-2.224 1.53797,-2.33165 1.83109,-0.77487 1.71022,-0.73098 3.74005,-2.25052 3.99935,0.59827 l 0.0284,0.0671 z m -0.001,13.52742 c -2.73391,-5.86975 -14.04269,1.54464 -7.82165,5.69489 3.26734,1.41065 9.41897,-1.56739 7.82165,-5.69489 z m 1.69479,-0.71719 c 3.01948,6.26842 -6.75034,11.84214 -11.3674,7.55481 -3.80412,-3.44348 -1.50012,-9.79141 3.35534,-10.72118 3.02701,-1.30691 6.88551,-0.10046 8.01206,3.16637 z m 2.92383,21.16652 c -2.44802,1.03594 -4.89605,2.07187 -7.34407,3.10781 -1.84421,-2.14262 0.43324,-2.61468 2.20701,-3.2909 2.35888,-1.34739 6.18688,-1.54464 6.81396,-4.6704 -0.28922,-4.54124 -5.3212,-3.81483 -8.10371,-2.07241 -1.49993,0.14967 -3.99951,2.76574 -4.73142,1.02049 -1.45243,-1.98682 2.27864,-1.87272 3.38738,-2.82148 2.76072,-1.16826 5.52143,-2.33652 8.28215,-3.50478 2.4259,2.75998 -3.23311,2.60047 1.31323,3.7995 3.22018,2.49084 2.12964,7.39969 -1.82453,8.43217 z"
     style="font-size:24.15966988px;font-family:Futura-Medium;fill:#ffffff" /><path
     id="OzaukeeText"
     d="m 274.46667,186.69577 c -1.31846,-4.60686 -7.34008,-4.40878 -10.70537,-2.31172 -3.78244,1.55609 -4.48029,7.22384 -0.99752,9.46245 3.75552,2.09412 9.16366,0.40023 11.4115,-3.16573 0.676,-1.20916 0.72555,-2.68628 0.29139,-3.985 z m 1.8444,-0.5843 c 1.81702,4.60202 -1.75539,9.45333 -6.25756,10.52107 -4.29539,1.7179 -10.00437,-0.19158 -11.16292,-5.00236 -1.82816,-4.60453 1.72326,-9.47425 6.23919,-10.54 4.41798,-1.66345 9.90969,0.0959 11.18129,5.02129 z m -1.22791,11.74918 c 1.03795,3.27643 2.0759,6.55284 3.11385,9.82925 -1.35702,0.76295 -2.6638,0.48482 -3.94712,-0.27939 -3.15364,-1.34548 -6.30729,-2.69098 -9.46093,-4.03647 0.82181,2.59414 1.64362,5.18828 2.46543,7.78242 -1.72765,1.18279 -2.05025,-0.34245 -2.39641,-1.82229 -0.81991,-2.58813 -1.63981,-5.17625 -2.45972,-7.76439 1.35704,-0.76294 2.66382,-0.48481 3.94713,0.2794 3.15365,1.34548 6.30729,2.69098 9.46093,4.03647 -0.79212,-2.50042 -1.58423,-5.00084 -2.37636,-7.50127 0.55107,-0.17458 1.10214,-0.34915 1.6532,-0.52373 z m -0.33218,20.70951 c 0.29012,-4.44696 -6.874,-4.96949 -5.4781,-0.18268 -0.22075,2.75483 7.1672,4.12691 5.7247,0.9611 -0.0822,-0.25947 -0.1644,-0.51894 -0.2466,-0.77842 z m 2.16225,3.85662 c -2.39546,0.75887 -4.79091,1.51774 -7.18637,2.2766 -0.84993,-1.54991 -0.64356,-2.55178 1.25632,-2.67498 -4.48153,-0.76954 -5.50988,-8.57072 -0.43835,-9.26648 3.39045,-0.8927 5.28327,2.77018 5.89622,5.51811 0.36157,4.25452 4.66553,-1.18836 2.4563,-3.28416 -1.31586,-1.73084 -2.82309,-4.5891 0.15739,-3.31916 2.07658,2.6187 3.64411,7.35167 0.26515,9.6164 -0.73123,0.51057 -1.56015,0.86419 -2.40666,1.13367 z m -0.91511,4.80676 c 2.54166,-0.80519 5.08332,-1.61037 7.62497,-2.41555 0.85541,1.55487 0.63622,2.5522 -1.26392,2.67739 -2.70736,1.07318 -5.91567,1.2963 -8.09375,3.3313 -1.81825,3.79626 3.19971,6.24133 6.18226,4.32797 1.9539,-0.61899 3.90782,-1.23798 5.86173,-1.85696 0.8554,1.55486 0.63622,2.5522 -1.26392,2.67739 -3.55879,1.1274 -7.11757,2.2548 -10.67636,3.38221 -0.8554,-1.55488 -0.63621,-2.55221 1.26393,-2.6774 -3.68993,-0.63289 -5.38219,-6.44218 -1.83168,-8.44106 0.67545,-0.44535 1.42816,-0.76076 2.19674,-1.00529 z m 17.20269,10.7862 c 0.85078,1.55561 0.64801,2.56459 -1.26037,2.68864 -2.80528,0.8887 -5.61056,1.77739 -8.41585,2.66609 2.46263,1.48447 4.92527,2.96894 7.3879,4.4534 0.23834,1.0847 1.60659,3.60081 -0.31328,1.95143 -2.28627,-1.37399 -4.57253,-2.74797 -6.8588,-4.12195 -1.49914,3.02828 -2.99828,6.05656 -4.49743,9.08484 -0.30126,-1.31719 -1.34721,-2.69113 -0.26046,-3.90255 1.17663,-2.38151 2.35327,-4.76301 3.52991,-7.14452 -2.05058,0.64961 -4.10115,1.29922 -6.15172,1.94883 -0.85078,-1.5556 -0.64801,-2.56459 1.26036,-2.68863 5.19325,-1.6452 10.3865,-3.29039 15.57974,-4.93558 z m -3.28412,26.74314 c -1.64335,1.02098 -1.34366,-1.703 -1.95806,-2.66519 -0.6894,-2.17617 -1.37879,-4.35234 -2.06819,-6.52852 -4.5176,1.27128 -3.6415,7.04804 -0.79345,9.58052 0.41715,1.80126 -3.37625,0.71257 -3.24489,-1.52205 -2.38827,-3.70132 -0.86529,-9.35524 3.72541,-10.33532 4.10231,-1.8314 9.10023,1.34192 9.00662,5.87283 0.13966,2.7519 -2.16573,4.92215 -4.66744,5.59773 z m -0.0482,-2.26171 c 6.08202,-0.98544 0.63596,-10.36188 -2.14474,-6.73447 0.71491,2.24482 1.42983,4.48965 2.14474,6.73447 z m 4.52308,16.38703 c -1.64336,1.02099 -1.34367,-1.70301 -1.95807,-2.6652 -0.68939,-2.17616 -1.37879,-4.35233 -2.06819,-6.5285 -4.5176,1.27127 -3.6415,7.04802 -0.79345,9.58051 0.41715,1.80126 -3.37625,0.71256 -3.24489,-1.52204 -2.38827,-3.70132 -0.8653,-9.35525 3.72541,-10.33533 4.10231,-1.83141 9.10023,1.34191 9.00662,5.87283 0.13966,2.75191 -2.16573,4.92215 -4.66743,5.59773 z m -0.0483,-2.2617 c 6.08202,-0.98545 0.63596,-10.36189 -2.14474,-6.73449 0.71491,2.24483 1.42983,4.48966 2.14474,6.73449 z"
     style="font-size:24.16049957px;font-family:Futura-Medium;fill:#ffffff" /><path
     id="MilwaukeeText"
     d="m 272.93204,358.5251 c 0.11646,1.44377 1.94735,3.44998 -0.0436,4.20239 -3.05061,2.30844 -6.10122,4.61689 -9.15184,6.92533 4.25873,0.30493 8.51745,0.60987 12.77618,0.91481 0.0649,1.3418 2.09932,3.75037 -0.25689,3.78087 -5.20442,1.54748 -10.40884,3.09496 -15.61324,4.64243 -1.19961,-1.98237 -0.1509,-2.74702 1.87545,-2.98217 4.09546,-1.21774 8.19092,-2.43548 12.28638,-3.65323 -4.29112,-0.30351 -8.58225,-0.60702 -12.87336,-0.91053 -0.97074,-1.6958 -0.57832,-2.94505 1.21639,-3.73492 2.79518,-2.11893 5.59038,-4.23785 8.38556,-6.35679 -4.94139,1.46927 -9.88279,2.93855 -14.82417,4.40782 -1.20426,-1.98173 -0.13713,-2.73325 1.87881,-2.97086 4.78145,-1.42172 9.5629,-2.84343 14.34435,-4.26515 z m 1.68627,21.11013 c 1.25988,1.97391 -0.0285,2.56763 -1.91917,2.83518 -3.37554,1.00368 -6.75108,2.00736 -10.12663,3.01104 -1.25988,-1.97391 0.0285,-2.56762 1.91917,-2.83517 3.37555,-1.00368 6.75109,-2.00737 10.12663,-3.01105 z m 4.93009,-1.46591 c 1.25987,1.97391 -0.0285,2.56763 -1.91917,2.83518 -1.23336,-1.53777 -0.39217,-2.65661 1.56854,-2.73092 l 0.25378,-0.0755 0.0969,-0.0288 z m 1.90972,6.42268 c 1.25987,1.97392 -0.0285,2.56763 -1.91917,2.83518 -5.01891,1.49232 -10.03781,2.98464 -15.05672,4.47696 -1.25988,-1.97391 0.0285,-2.56763 1.91916,-2.83517 5.01892,-1.49233 10.03782,-2.98465 15.05673,-4.47697 z m -3.38012,6.67869 c 1.19273,1.82262 0.0505,2.74569 -1.64357,3.45619 -2.28244,1.38789 -4.56486,2.77578 -6.84728,4.16368 3.55091,-0.11637 7.10182,-0.23275 10.65273,-0.34912 0.93999,1.76048 0.71114,3.07067 -1.3064,3.69177 -2.35783,1.43375 -4.71566,2.8675 -7.0735,4.30124 3.55091,-0.11637 7.10182,-0.23274 10.65273,-0.34911 1.28627,2.13637 -0.0596,2.37641 -2.02753,2.16831 -3.66779,0.1216 -7.33559,0.2432 -11.00338,0.3648 -0.94014,-1.76069 -0.71109,-3.07057 1.30712,-3.69057 2.5111,-1.52492 5.0222,-3.04984 7.53332,-4.57476 -3.73133,0.11669 -7.46265,0.23337 -11.19397,0.35005 -0.94032,-1.76099 -0.71099,-3.07042 1.30818,-3.68881 3.21386,-1.94789 6.4277,-3.89578 9.64155,-5.84367 z m 1.40781,27.78961 c 0.34866,-5.31253 -7.74688,-4.3615 -5.15312,0.51919 0.88784,2.33188 7.58544,3.32268 5.15312,-0.51919 z m 2.0933,3.89434 c -2.40851,0.71615 -4.81701,1.43229 -7.22552,2.14843 -2.35437,-2.3782 2.74993,-2.45996 0.0622,-3.15377 -5.88937,-2.96184 -0.26056,-12.60201 4.80417,-7.50825 1.64244,1.57661 1.62357,4.62987 2.71293,6.14386 4.9958,-1.28953 -0.23185,-7.33921 0.44257,-8.50052 2.90871,-0.63521 3.94911,4.94429 3.5154,7.27828 -0.5232,1.99129 -2.48343,3.06165 -4.31177,3.59197 z m -1.00039,4.7896 c 2.55549,-0.75985 5.111,-1.51971 7.6665,-2.27956 1.25988,1.97392 -0.0285,2.56764 -1.91916,2.83519 -2.62209,1.07705 -6.12691,0.98944 -7.81716,3.51661 -1.01813,4.34088 4.1275,5.37656 7.12137,3.7054 1.71668,-0.51043 3.43336,-1.02087 5.15004,-1.53131 1.25987,1.97392 -0.0285,2.56763 -1.91917,2.83518 -3.37554,1.00368 -6.75109,2.00736 -10.12663,3.01105 -2.36138,-2.39834 2.78222,-2.45211 0.0761,-3.17945 -3.99876,-2.21835 -2.81669,-8.29941 1.76809,-8.91311 z m 17.00777,11.09003 c 1.25529,1.97459 -0.0147,2.58143 -1.9158,2.84649 -2.61795,0.77841 -5.23588,1.55683 -7.85382,2.33525 2.43579,1.52796 4.87158,3.05593 7.30737,4.5839 0.71257,1.88839 1.14562,3.40944 -1.00567,1.53412 -2.04217,-1.27725 -4.08433,-2.55449 -6.1265,-3.83174 -1.5527,3.00108 -3.1054,6.00215 -4.6581,9.00322 -0.61883,-1.59534 -1.10265,-3.17797 0.16491,-4.59579 1.1001,-2.13038 2.20021,-4.26074 3.30031,-6.39112 -2.06174,0.61304 -4.12348,1.22608 -6.18522,1.83911 -1.25529,-1.97459 0.0147,-2.58143 1.9158,-2.84648 5.01891,-1.49232 10.03782,-2.98464 15.05672,-4.47696 z m -3.75892,26.67983 c -1.83395,1.02614 -1.34846,-2.23018 -2.0741,-3.25034 -0.59599,-2.00441 -1.19198,-4.00883 -1.78797,-6.01324 -5.76185,1.27377 -2.11936,8.23067 -1.03038,10.18908 -3.30507,1.14848 -4.30336,-5.0169 -4.11584,-7.46069 0.94729,-6.07039 11.17836,-7.64207 13.24653,-1.49881 1.68241,3.40401 -0.6671,7.29897 -4.23824,8.034 z m -0.008,-2.26215 c 6.26857,-0.87263 0.51532,-10.55193 -1.98936,-6.65339 0.66312,2.2178 1.32624,4.4356 1.98936,6.65339 z m 4.23093,16.46441 c -1.83395,1.02615 -1.34846,-2.23017 -2.0741,-3.25034 -0.596,-2.00442 -1.19199,-4.00883 -1.78798,-6.01324 -5.76184,1.27378 -2.11936,8.23067 -1.03038,10.18909 -3.30507,1.14848 -4.30335,-5.0169 -4.11583,-7.46069 0.94729,-6.0704 11.17836,-7.64207 13.24653,-1.49881 1.6824,3.404 -0.6671,7.29897 -4.23824,8.03399 z m -0.008,-2.26215 c 6.26857,-0.87262 0.51531,-10.55193 -1.98937,-6.65338 0.66313,2.2178 1.32625,4.43559 1.98937,6.65338 z"
     style="font-size:24.15986252px;font-family:ArialMT;fill:#ffffff" /><path
     id="RacineText"
     d="m 215.77302,550.60447 c 2.54626,1.3364 3.23277,4.39582 4.59972,6.72952 0.62144,0.9977 1.08646,1.89894 -0.51064,1.5285 -1.1817,0.35849 -1.65337,-0.43053 -1.99464,-1.4303 -1.14314,-1.93527 -1.68034,-4.44349 -3.68337,-5.68856 -1.39982,-0.5315 -2.91886,-0.25648 -4.38044,-0.32516 0,2.48134 0,4.96268 0,7.44402 -0.77004,-0.23741 -2.5969,0.582 -2.38303,-0.63932 0,-5.65795 0,-11.3159 0,-16.97385 3.01654,0.1613 6.18225,-0.47009 9.04696,0.71004 3.32497,1.59431 3.16097,7.78346 -0.69456,8.64511 z m -5.96937,-7.39682 c 0,2.08416 0,4.16833 0,6.25249 2.01548,-0.16066 4.534,0.59018 5.97895,-1.23796 1.52184,-2.24599 -0.36806,-5.5358 -3.1423,-5.01453 -0.94555,0 -1.8911,0 -2.83665,0 z m 19.83104,9.01303 c -2.92822,-0.97682 -6.63852,2.51067 -3.48754,4.78892 2.84399,1.52344 6.02974,-1.32439 5.64642,-4.30523 0.2942,-0.99316 -1.6225,-0.25731 -2.15888,-0.48369 z m 4.32956,-0.89658 c 0,2.51279 0,5.02559 0,7.53839 -0.79544,-0.19451 -2.55011,0.57022 -2.17068,-0.79915 0.38871,-2.75085 -1.98706,1.95907 -3.79426,1.10587 -2.78507,0.60341 -5.73183,-1.75392 -5.17195,-4.69287 0.10998,-3.13068 3.62813,-4.15509 6.2422,-3.95445 0.84227,-0.11901 2.15302,0.23045 2.72401,-0.15983 0.15414,-3.09441 -3.67549,-3.71138 -5.95757,-2.91923 -1.84239,1.09216 -2.34634,0.72802 -2.0645,-1.19152 2.97235,-1.15524 7.42614,-1.75865 9.39644,1.40534 0.62453,1.11177 0.79263,2.41129 0.79631,3.66745 z m 14.06223,-5.16716 c 0.0183,1.25046 0.31587,2.77987 -1.38691,1.41418 -2.75831,-1.25298 -6.58585,0.23732 -6.70374,3.55537 -0.7414,3.03289 1.37132,6.82249 4.84495,6.22227 1.8659,-0.13637 3.86669,-1.91324 3.2457,0.91888 -3.09814,1.77675 -8.20495,1.17109 -9.76566,-2.52974 -1.55718,-3.53037 -0.62538,-8.79673 3.50131,-10.05225 2.04637,-0.6253 4.32546,-0.40771 6.26435,0.47129 z m 3.7515,-0.50728 c 0.79543,0.1945 2.5501,-0.57023 2.17067,0.79914 0,4.1379 0,8.27579 0,12.41369 -0.79543,-0.19451 -2.5501,0.57022 -2.17067,-0.79915 0,-4.13789 0,-8.27579 0,-12.41368 z m 0,-5.14357 c 0.79543,0.19451 2.5501,-0.57022 2.17067,0.79915 -0.10461,0.8649 0.47542,2.41446 -0.95897,1.94959 -1.43071,0.44077 -1.28061,-0.69927 -1.2117,-1.75811 0,-0.33021 0,-0.66042 0,-0.99063 z m 17.68395,10.38151 c 0,2.6583 0,5.31659 0,7.97489 -0.79543,-0.19451 -2.5501,0.57022 -2.17068,-0.79915 -0.0811,-2.913 0.18555,-5.85435 -0.18285,-8.74476 -0.67227,-3.16829 -5.62695,-2.51223 -6.2761,0.34507 -0.49743,2.82542 -0.14999,5.73853 -0.25363,8.60388 0.28792,1.05269 -1.81412,0.57654 -2.18248,0.43513 0,-4.351 0,-8.702 0,-13.053 0.79877,0.1951 2.55842,-0.57067 2.18248,0.79914 -0.39163,2.86192 2.06402,-2.06218 3.93048,-1.10845 3.27731,-0.44061 5.20528,2.5765 4.95278,5.54725 z m 15.65484,0.8258 c 0.46517,1.4584 -0.97195,1.01452 -1.91795,1.06175 -2.68748,0 -5.37497,0 -8.06245,0 -0.20689,3.4633 3.52096,5.40365 6.54816,4.41656 1.71468,-0.42799 3.48817,-1.85738 2.92496,0.70375 -1.9437,1.53147 -5.51476,1.69006 -8.02654,0.72684 -4.22275,-1.75051 -4.76776,-7.81167 -2.17709,-11.13735 2.63584,-3.34727 9.08458,-2.80874 10.32161,1.58884 0.28336,0.8491 0.38905,1.74758 0.3893,2.63961 z m -2.17068,-0.63704 c 0.24136,-2.5695 -2.40278,-4.6229 -4.83591,-3.76054 -1.59764,-0.0955 -4.23882,3.88181 -1.94406,3.77087 2.25999,-0.003 4.51998,-0.007 6.77997,-0.0103 z"
     style="font-size:24.16060066px;font-family:Futura-Medium;fill:#ffffff" /><path
     id="SheboyganText"
     d="m 228.05749,75.300392 c 1.03115,4.600629 -4.11528,-0.482447 -6.60936,1.226905 -5.05079,1.846072 -0.54949,6.319501 3.11316,5.872409 5.49127,0.307926 6.22763,9.031164 0.72386,9.947594 -2.56656,0.273634 -8.99645,1.223873 -8.49396,-2.664557 1.64512,-0.136228 9.41936,3.397774 9.83884,-2.030716 -0.47824,-4.398612 -6.35917,-2.429516 -8.71811,-5.072783 -3.72999,-4.12302 1.60248,-9.529262 6.24071,-8.119401 1.32997,0.117883 2.63955,0.418824 3.90486,0.840549 z m 15.71383,9.060225 c 0,2.658295 0,5.31659 0,7.974886 -2.27773,0.661719 -2.44519,-0.786831 -2.17068,-2.677352 -0.28426,-2.803192 0.79524,-6.118861 -1.14285,-8.442217 -3.89102,-2.220076 -6.31666,2.446494 -5.56974,5.793843 0,1.775242 0,3.550484 0,5.325726 -2.27709,0.657149 -2.46235,-0.777539 -2.18248,-2.677352 0,-5.226348 0,-10.452695 0,-15.679042 2.2771,-0.657149 2.46235,0.777539 2.18248,2.677352 0.2762,1.201672 -0.7103,5.872309 0.84645,3.47782 3.2725,-3.2077 8.76381,-0.359028 8.03682,4.226336 z m 15.65484,0.825802 c 0.34143,2.03402 -2.72188,0.663299 -4.01603,1.061745 -1.98812,0 -3.97625,0 -5.96438,0 -0.57979,6.367828 7.8599,3.738378 9.47313,4.165398 -0.37789,3.24191 -6.57785,2.537665 -8.8899,1.228857 -4.91069,-3.080458 -3.31321,-12.57873 2.90413,-12.808407 3.74243,-0.642474 6.80633,2.719785 6.49305,6.352407 z m -2.17068,-0.637047 c 0.9537,-6.268992 -9.98762,-3.484675 -6.93574,0.01057 2.31191,-0.0035 4.62383,-0.007 6.93574,-0.01057 z m 15.17116,1.191514 c 1.10389,-6.974712 -9.13483,-5.998213 -7.36973,0.582669 -0.3548,6.399816 8.36295,5.515601 7.36973,-0.582669 z m -7.38503,-4.612693 c 2.11188,-3.970423 8.54238,-2.475054 9.26078,1.799068 1.26106,3.775137 -0.2744,9.742829 -5.03739,9.75036 -2.86435,0.53877 -4.42109,-3.899638 -4.49112,-0.342118 -2.3907,0.770757 -1.9683,-1.271586 -1.91474,-2.945087 0,-5.137103 0,-10.274205 0,-15.411307 2.27709,-0.657149 2.46234,0.777539 2.18247,2.677352 0,1.490577 0,2.981154 0,4.471732 z m 18.3564,-0.483684 c -5.50746,0.181851 -4.98059,11.224782 0.82211,10.107224 4.24432,-1.187034 4.00726,-9.987623 -0.82211,-10.107224 z m 0,-1.840358 c 4.77985,-0.343816 7.00546,5.198852 5.83646,9.174141 -0.66124,5.539846 -9.39166,6.435456 -11.27348,1.274094 -1.67975,-3.893147 -0.26585,-10.180024 4.74541,-10.41948 l 0.69161,-0.02875 z m 15.14756,14.758257 c 0.17368,2.713996 -5.04333,5.399027 -5.86319,2.995483 0.0865,-1.906108 4.30653,-0.894744 4.05699,-4.19136 -0.73265,-2.890642 -2.30788,-5.774679 -3.36535,-8.662774 -0.62772,-1.527028 -1.25544,-3.054055 -1.88315,-4.581083 2.04354,-0.56735 2.888,0.635638 3.29381,2.48625 1.04521,2.616023 2.09043,5.232046 3.13564,7.84807 1.37634,-3.444774 2.75268,-6.889547 4.12901,-10.33432 2.49809,-0.566876 2.37875,0.635108 1.30191,2.484176 -1.60189,3.985186 -3.20378,7.970372 -4.80567,11.955558 z m 17.4952,-7.986683 c 1.08704,-6.780902 -9.12766,-5.86038 -7.38171,0.570504 -0.35106,6.178495 8.36574,5.35516 7.38171,-0.570504 z m 2.17068,5.119971 c 0.74639,4.699585 -4.00722,7.824789 -8.24622,6.488443 -2.73751,0.868005 -2.6992,-4.504412 -0.0826,-1.863953 3.57497,1.47013 7.00247,-1.653467 6.15812,-5.308726 -2.07554,3.907705 -8.50632,2.559048 -9.26667,-1.681096 -1.26912,-3.734485 0.31763,-9.591927 5.03149,-9.526213 2.87634,-0.51795 4.4426,3.902122 4.50292,0.318523 2.38996,-0.773952 1.95018,1.281836 1.90294,2.945087 0,2.875979 0,5.751957 0,8.627935 z m 10.47589,-5.001999 c -4.99298,-1.848364 -6.38873,6.182703 -0.97106,5.087529 2.48709,-0.186824 5.34983,-6.32423 0.97106,-5.087529 z m 4.32956,-0.896585 c 0,2.512797 0,5.025594 0,7.538391 -2.96361,1.598856 -1.56456,-3.356431 -3.00533,-0.95852 -4.51766,4.801116 -12.15399,-3.342011 -5.8278,-6.745031 1.97797,-1.126464 4.90266,-0.23478 6.66245,-0.849396 0.19036,-5.167482 -7.11729,-1.852174 -8.02208,-2.855913 0.22568,-2.962666 5.87038,-2.363952 7.97858,-1.286368 1.75965,1.069063 2.22695,3.253112 2.21418,5.156837 z m 15.51327,-0.436495 c 0,2.658295 0,5.31659 0,7.974886 -2.27773,0.661719 -2.44519,-0.786831 -2.17067,-2.677352 -0.28426,-2.803192 0.79523,-6.118861 -1.14286,-8.442217 -3.89102,-2.220076 -6.31666,2.446494 -5.56973,5.793843 0,1.775242 0,3.550484 0,5.325726 -2.2771,0.657149 -2.46235,-0.777539 -2.18248,-2.677352 0,-3.511826 0,-7.023651 0,-10.535477 2.99018,-1.596994 1.5684,3.375585 3.02892,1.011607 3.27251,-3.2077 8.76381,-0.359028 8.03682,4.226336 z"
     style="font-size:24.16060066px;font-family:Futura-Medium;fill:#ffffff" /><metadata
     id="metadata3491"><rdf:RDF><cc:Work
         rdf:about=""><dc:title></dc:title></cc:Work></rdf:RDF></metadata></svg>